<svg width="16" height="16" version="1.1" xmlns="http://www.w3.org/2000/svg" desc="Created with imagetracer.js version 1.2.6" ><path fill="rgb(53,103,218)" stroke="rgb(53,103,218)" stroke-width="1" opacity="1" d="M 4.5 3 L 7 3.5 L 4.5 4 L 4.5 3 Z " /><path fill="rgb(53,103,218)" stroke="rgb(53,103,218)" stroke-width="1" opacity="1" d="M 2.5 7 L 3 9.5 L 2 9.5 L 2.5 7 Z " /><path fill="rgb(56,92,212)" stroke="rgb(56,92,212)" stroke-width="1" opacity="1" d="M 9.5 3 L 12 3.5 L 9.5 4 L 9.5 3 Z " /><path fill="rgb(56,92,212)" stroke="rgb(56,92,212)" stroke-width="1" opacity="1" d="M 3.5 10 L 5 12.5 L 4 12.5 L 3.5 10 Z " /><path fill="rgb(72,97,210)" stroke="rgb(72,97,210)" stroke-width="1" opacity="0.9686274509803922" d="M 13 1 Q 16 -0.3 15 3.5 L 13.5 6 L 12 3.5 L 13 1 Z " /><path fill="rgb(72,97,210)" stroke="rgb(72,97,210)" stroke-width="1" opacity="0.9686274509803922" d="M 2.5 12 L 5 13.5 L 3 14 L 2.5 16 L 1 13.5 L 2.5 12 Z " /><path fill="rgb(105,122,212)" stroke="rgb(105,122,212)" stroke-width="1" opacity="0.9333333333333333" d="M 6.5 9 Q 9.5 10.5 6.5 12 L 5 11.5 L 7 10.5 L 6.5 9 Z " /><path fill="rgb(64,119,222)" stroke="rgb(64,119,222)" stroke-width="1" opacity="1" d="M 4.5 0 L 9 0.5 L 8.5 3 Q 3.1 1.1 4 4.5 L 3 5.5 L 4.5 8 L 2 6.5 Q 3 10.3 0 9 Q -1 3.3 2.5 1 L 4.5 0 Z " /><path fill="rgb(172,183,226)" stroke="rgb(172,183,226)" stroke-width="1" opacity="1" d="M 5.5 4 Q 10.8 2.8 12 5.5 L 10.5 5 L 8.5 6 L 6.5 5 L 4.5 6 L 5.5 4 Z " /><path fill="rgb(172,183,226)" stroke="rgb(172,183,226)" stroke-width="1" opacity="1" d="M 3.5 8 L 5.5 9 L 7 8.5 L 4.5 10 L 3.5 8 Z " /><path fill="rgb(172,183,226)" stroke="rgb(172,183,226)" stroke-width="1" opacity="1" d="M 12.5 8 L 11.5 10 L 10 9.5 L 12.5 8 Z " /><path fill="rgb(172,183,226)" stroke="rgb(172,183,226)" stroke-width="1" opacity="1" d="M 7.5 11 L 10 12.5 L 8.5 12 L 6.5 13 L 7.5 11 Z " /><path fill="rgb(172,183,226)" stroke="rgb(172,183,226)" stroke-width="1" opacity="1" d="M 15.5 14 L 16 16 L 14 15.5 L 15.5 14 Z " /><path fill="rgb(150,160,212)" stroke="rgb(150,160,212)" stroke-width="1" opacity="0.9921568627450981" d="M 11.5 4 L 12.5 10 L 9 9 L 8.5 11 L 7 8.5 L 7 6.5 L 7.5 5 L 9 8 L 12 7.5 L 10 7 L 11.5 4 Z " /><path fill="rgb(150,160,212)" stroke="rgb(150,160,212)" stroke-width="1" opacity="0.9921568627450981" d="M 4.5 6 L 6 6.5 L 4 7.5 L 6 8.5 L 4.5 9 Q 1.5 7.5 4.5 6 Z " /><path fill="rgb(65,106,217)" stroke="rgb(65,106,217)" stroke-width="1" opacity="1" d="M 9.5 0 Q 14.8 -1.5 13 3 Q 9.2 4 8 1.5 L 9.5 0 Z " /><path fill="rgb(65,106,217)" stroke="rgb(65,106,217)" stroke-width="1" opacity="1" d="M 6.5 6 L 5.5 8 L 6.5 6 Z " /><path fill="rgb(65,106,217)" stroke="rgb(65,106,217)" stroke-width="1" opacity="1" d="M 0 9 L 4 11.5 L 0 13 L 0 9 Z " /><path fill="rgb(60,83,200)" stroke="rgb(60,83,200)" stroke-width="1" opacity="1" d="M 12.5 5 L 14 7.5 L 13 7.5 L 12.5 5 Z " /><path fill="rgb(0,0,0)" stroke="rgb(0,0,0)" stroke-width="1" opacity="0" d="M 0 0 L 4 0.5 L 1 1 L 0.5 4 L 0 0 Z " /><path fill="rgb(0,0,0)" stroke="rgb(0,0,0)" stroke-width="1" opacity="0" d="M 0.5 13 L 1 15.5 L 0 15.5 L 0.5 13 Z " /><path fill="rgb(76,83,204)" stroke="rgb(76,83,204)" stroke-width="1" opacity="1" d="M 15.5 3 L 16 7.5 L 12.5 12 L 11 11.5 L 14 9.5 L 14 7.5 Q 13.3 3.8 15.5 3 Z " /><path fill="rgb(76,83,204)" stroke="rgb(76,83,204)" stroke-width="1" opacity="1" d="M 3 14 L 11 14.5 L 3 16 L 3 14 Z " /><path fill="rgb(77,75,197)" stroke="rgb(77,75,197)" stroke-width="1" opacity="1" d="M 15.5 8 L 16 11.5 L 13 16 L 8 15.5 L 11 15 Q 9.5 11.3 12.5 12 L 13.5 9 L 15 9.5 L 15.5 8 Z " /><path fill="rgb(64,64,193)" stroke="rgb(64,64,193)" stroke-width="1" opacity="1" d="M 15.5 12 L 13.5 15 L 15.5 12 Z " /><path fill="rgb(64,64,193)" stroke="rgb(64,64,193)" stroke-width="1" opacity="1" d="M 6.5 13 L 11 13.5 L 6.5 14 L 6.5 13 Z " /></svg>