<svg width="180" height="180" version="1.1" xmlns="http://www.w3.org/2000/svg" desc="Created with imagetracer.js version 1.2.6" ><path fill="rgb(72,128,225)" stroke="rgb(72,128,225)" stroke-width="1" opacity="0.9803921568627451" d="M 36.5 0 L 39.5 1 L 40.5 0 L 51.5 0 L 51 1.5 L 48.5 5 L 47 4.5 L 46 6.5 L 48 7.5 L 46.5 8 L 45 7.5 L 43.5 10 L 41 11.5 L 41.5 14 L 42 12 L 44 12.5 L 38 16.5 L 38 19 Q 35.3 17.9 36 20.5 L 29 25.5 L 30.5 28 L 28.5 28 L 27 28.5 L 27.5 30 Q 22.8 29.3 22 32.5 L 23 34.5 Q 18.3 34.3 17 37.5 L 16.5 40 Q 15.3 37.8 14 40.5 L 15 42.5 L 14 42.5 L 13.5 41 L 13 43 L 10.5 44 L 9 43.5 L 8 47 L 5 48.5 L 5 50.5 L 4.5 52 L 2 51 L 1.5 54 L 0 38.5 L 1.5 33 L 3 33.5 L 1 30.5 L 4 29.5 L 3 26.5 L 3.5 24 L 6 23.5 L 6 21.5 L 7.5 19 L 9 18.5 L 8 17.5 L 17.5 8 L 22 6 L 22.5 4 L 24.5 4 L 27.5 2 L 36.5 0 Z " /><path fill="rgb(72,128,225)" stroke="rgb(72,128,225)" stroke-width="1" opacity="0.9803921568627451" d="M 167.5 9 L 171 13.5 L 170 13.5 L 167.5 9 Z " /><path fill="rgb(72,128,225)" stroke="rgb(72,128,225)" stroke-width="1" opacity="0.9803921568627451" d="M 173.5 15 L 175 17.5 L 173 18 L 173.5 15 Z " /><path fill="rgb(72,128,225)" stroke="rgb(72,128,225)" stroke-width="1" opacity="0.9803921568627451" d="M 177.5 21 L 178 23 L 176 22.5 L 177.5 21 Z " /><path fill="rgb(72,128,225)" stroke="rgb(72,128,225)" stroke-width="1" opacity="0.9803921568627451" d="M 177.5 24 L 180 25.5 L 179.5 30 L 178 26.5 L 178.5 25 L 177.5 24 Z " /><path fill="rgb(72,128,225)" stroke="rgb(72,128,225)" stroke-width="1" opacity="0.9803921568627451" d="M 93.5 27 L 95.5 30 L 93.5 27 Z " /><path fill="rgb(72,128,225)" stroke="rgb(72,128,225)" stroke-width="1" opacity="0.9803921568627451" d="M 56.5 47 L 60 47.5 L 56.5 48 L 56.5 47 Z " /><path fill="rgb(72,128,225)" stroke="rgb(72,128,225)" stroke-width="1" opacity="0.9803921568627451" d="M 43.5 50 L 44 52.5 L 43 52.5 L 43.5 50 Z " /><path fill="rgb(72,128,225)" stroke="rgb(72,128,225)" stroke-width="1" opacity="0.9803921568627451" d="M 137.5 53 L 136.5 55 L 137.5 53 Z " /><path fill="rgb(72,128,225)" stroke="rgb(72,128,225)" stroke-width="1" opacity="0.9803921568627451" d="M 86.5 56 L 87 134.5 L 86 134.5 L 86.5 56 Z " /><path fill="rgb(72,128,225)" stroke="rgb(72,128,225)" stroke-width="1" opacity="0.9803921568627451" d="M 43.5 97 L 68 97.5 L 43.5 98 L 43.5 97 Z " /><path fill="rgb(72,128,225)" stroke="rgb(72,128,225)" stroke-width="1" opacity="0.9803921568627451" d="M 118.5 97 L 136 97.5 L 118.5 98 L 118.5 97 Z " /><path fill="rgb(72,128,225)" stroke="rgb(72,128,225)" stroke-width="1" opacity="0.9803921568627451" d="M 60.5 135 L 59.5 137 L 60.5 135 Z " /><path fill="rgb(72,128,225)" stroke="rgb(72,128,225)" stroke-width="1" opacity="0.9803921568627451" d="M 123.5 138 L 124 141.5 L 123 141.5 L 123.5 138 Z " /><path fill="rgb(72,128,225)" stroke="rgb(72,128,225)" stroke-width="1" opacity="0.9803921568627451" d="M 0.5 142 L 1 144.5 L 0 144.5 L 0.5 142 Z " /><path fill="rgb(72,128,225)" stroke="rgb(72,128,225)" stroke-width="1" opacity="0.9803921568627451" d="M 1.5 147 L 5 157.5 L 3 156.5 Q -0.1 152.9 1.5 147 Z " /><path fill="rgb(72,128,225)" stroke="rgb(72,128,225)" stroke-width="1" opacity="0.9803921568627451" d="M 8.5 165 L 12 167.5 L 10.5 167 L 8.5 165 Z " /><path fill="rgb(72,128,225)" stroke="rgb(72,128,225)" stroke-width="1" opacity="0.9803921568627451" d="M 170.5 167 L 167.5 171 L 170.5 167 Z " /><path fill="rgb(72,128,225)" stroke="rgb(72,128,225)" stroke-width="1" opacity="0.9803921568627451" d="M 13.5 169 L 14 171 Q 16.7 169.9 16 172.5 L 13 170.5 L 13.5 169 Z " /><path fill="rgb(72,128,225)" stroke="rgb(72,128,225)" stroke-width="1" opacity="0.9803921568627451" d="M 21.5 175 L 32 179.5 L 28.5 180 L 23.5 177 L 22 177.5 L 21.5 175 Z " /><path fill="rgb(66,117,223)" stroke="rgb(66,117,223)" stroke-width="1" opacity="0.996078431372549" d="M 52.5 0 L 102.5 0 L 103.5 1 L 105.5 0 Q 109 2 104.5 4 L 102.5 3 L 101.5 5 L 104 5.5 L 101 7.5 L 101 10 L 97 12 L 97 15 L 94.5 15 L 93 14.5 Q 92.3 16.8 94.5 16 L 93.5 18 Q 91.3 17.3 92 19.5 Q 89.3 20.6 90 24 L 84 25.5 L 86.5 27 Q 87.8 24.8 89 27.5 L 86 28.5 L 84.5 32 L 83.5 30 L 82.5 32 Q 81 29.5 79.5 33 L 77 34.5 L 77.5 36 L 76 36.5 L 77 39 L 74.5 38 Q 73.1 42.8 68 42 Q 66.9 44.7 69.5 44 L 72.5 43 L 72.5 44 Q 69.2 42.9 70 45.5 L 68.5 45 Q 64.1 43.5 65 46.5 L 63.5 46 Q 57 44.5 55.5 48 L 46.5 48 Q 45.3 45.7 44 48.5 Q 44.7 51.1 42 50 L 42 52.5 L 40 54.5 Q 41.5 60 39 61.5 L 41 64.5 L 40 68 L 38 68.5 L 39.5 71 L 38 71.5 L 38.5 73 L 37 72.5 L 36.5 74 L 36 72 L 34 72.5 L 34.5 74 L 32 74.5 Q 34.5 76 31 77.5 L 28.5 81 L 22 84.5 L 23 86.5 L 19 89.5 L 19.5 91 L 16.5 90 L 15 91.5 L 16.5 94 L 14.5 93 L 8 97.5 L 10 98.5 L 7.5 100 Q 6.3 97.8 5 100.5 Q 7.5 102 4 103.5 L 3.5 107 L 1 106 L 1 88.5 L 0 87.5 L 0 41.5 L 1 41.5 L 1.5 54 L 2 51 L 4.5 52 L 5 50.5 Q 2.2 48.8 6.5 47 Q 8.8 47.8 8 45.5 L 9.5 43 L 11.5 43 Q 13.8 43.8 13 41.5 Q 15 37.8 17 39.5 Q 16.5 35.5 19.5 35 L 23 34.5 L 22 32.5 Q 23.3 29.3 28 29.5 L 27.5 28 L 30 26.5 L 29.5 25 L 35 21.5 L 34 19.5 L 35 19.5 L 35.5 21 L 36 19 Q 39 20.3 38 16.5 L 42.5 10 L 45 8.5 L 47.5 4 Q 49.3 6.8 51 2.5 L 52.5 0 Z M 42 12 L 42 14 L 44 13 L 42 12 Z " /><path fill="rgb(66,117,223)" stroke="rgb(66,117,223)" stroke-width="1" opacity="0.996078431372549" d="M 136.5 97 L 139 97.5 L 136.5 98 L 136.5 97 Z " /><path fill="rgb(66,117,223)" stroke="rgb(66,117,223)" stroke-width="1" opacity="0.996078431372549" d="M 58.5 138 L 59 141.5 L 58 141.5 L 58.5 138 Z " /><path fill="rgb(71,105,217)" stroke="rgb(71,105,217)" stroke-width="1" opacity="0.996078431372549" d="M 135.5 0 Q 141.3 -1.3 142.5 2 Q 144 -1.5 145.5 1 Q 148.1 0.3 147 3 L 150.5 3 L 152 2.5 Q 151.3 4.8 153.5 4 L 155 3.5 Q 154.3 5.8 156.5 5 L 161.5 8 L 163 7.5 Q 161.7 10.3 160.5 8 L 157.5 7 L 155 8.5 L 154.5 7 L 153.5 10 L 152 9.5 L 153 12.5 L 149 14.5 L 150 16.5 L 148 16.5 L 146.5 19 Q 140.8 17.2 143 23.5 L 141 23.5 L 141 25 Q 137.3 23.5 138 26.5 L 135 27.5 Q 135.8 31.3 133.5 32 L 131 32.5 L 134 33.5 L 131 34 L 130 36.5 L 132 37.5 L 131 40 L 129 40.5 Q 131.3 41.8 128.5 43 L 127.5 40 L 126 44 L 122 44.5 L 124 45.5 L 117.5 47 L 117.5 45 L 112.5 46 L 112.5 44 L 108.5 45 L 108 43 L 101 41.5 L 104 39.5 L 102 35.5 L 104.5 32 L 110 34 L 109 30 L 113 30 L 113 28.5 L 111.5 29 Q 109.3 29.8 110 27.5 L 112 27.5 L 112.5 26 L 113.5 28 Q 116.3 26.8 114 25.5 L 115.5 23 L 118.5 25 L 119 22.5 L 117 18.5 L 118.5 19 L 121 19.5 L 120.5 21 Q 123.5 21.7 122 18 Q 119.3 19.1 120 16.5 L 124 14.5 L 123 13.5 L 126.5 10 Q 129.1 9.2 128 12.5 L 129 12.5 L 129.5 8 L 131 8.5 Q 129.5 4.1 132.5 5 L 133.5 2 L 138 1.5 Q 134.7 1.6 135.5 0 Z M 141 19 Q 139 22 142 21 L 141 19 Z M 116 24 L 117 26 Q 118 23 116 24 Z M 116 27 Q 114 30 117 29 L 116 27 Z M 134 29 L 132 31 L 134 31 L 134 29 Z M 104 33 L 104 35 L 106 34 L 104 33 Z M 130 37 L 128 40 L 130 39 L 130 37 Z " /><path fill="rgb(71,105,217)" stroke="rgb(71,105,217)" stroke-width="1" opacity="0.996078431372549" d="M 175.5 18 L 174.5 20 L 175.5 18 Z " /><path fill="rgb(71,105,217)" stroke="rgb(71,105,217)" stroke-width="1" opacity="0.996078431372549" d="M 116.5 20 L 115.5 22 L 116.5 20 Z " /><path fill="rgb(71,105,217)" stroke="rgb(71,105,217)" stroke-width="1" opacity="0.996078431372549" d="M 94.5 36 L 95 40.5 L 94 40.5 L 94.5 36 Z " /><path fill="rgb(71,105,217)" stroke="rgb(71,105,217)" stroke-width="1" opacity="0.996078431372549" d="M 80.5 66 L 82 72.5 L 80 77.5 L 81 79.5 L 79 83.5 L 79.5 85 Q 76.2 86.1 77 83.5 L 72 75.5 L 74 75 L 75 71 L 73 70.5 L 76 68.5 L 74 67.5 L 77 67 Q 75.9 69.7 78.5 69 L 80 69.5 L 80.5 66 Z " /><path fill="rgb(71,105,217)" stroke="rgb(71,105,217)" stroke-width="1" opacity="0.996078431372549" d="M 56.5 85 L 55.5 87 L 56.5 85 Z " /><path fill="rgb(71,105,217)" stroke="rgb(71,105,217)" stroke-width="1" opacity="0.996078431372549" d="M 57.5 87 L 60 92.5 L 58.5 95 L 60 95.5 L 51 96 Q 49.9 93.3 52.5 94 L 52 92.5 Q 50.1 87.1 53.5 88 L 56 89 L 56.5 91 L 57.5 87 Z " /><path fill="rgb(71,105,217)" stroke="rgb(71,105,217)" stroke-width="1" opacity="0.996078431372549" d="M 113.5 97 L 116 97.5 L 113.5 98 L 113.5 97 Z " /><path fill="rgb(71,105,217)" stroke="rgb(71,105,217)" stroke-width="1" opacity="0.996078431372549" d="M 29.5 106 L 30 108.5 L 29 110.5 L 32 111.5 L 32 113.5 L 36 122.5 L 33.5 127 L 32 126.5 L 33 128.5 L 31.5 128 L 30 128 Q 31.5 131.8 28.5 131 L 27.5 134 L 25 134.5 L 27 135.5 L 25.5 136 Q 24.3 133.7 23 136.5 L 21.5 139 L 18 140 L 17.5 142 L 15 141 L 14 145 L 8 147.5 L 8.5 149 L 6 150.5 L 4.5 153 L 3.5 150 L 2 150.5 L 3 147.5 L 1 145.5 L 1 133.5 L 4 129.5 L 3.5 128 Q 4.8 130.3 6 127.5 Q 5.3 125.3 7.5 126 L 9 126.5 Q 9.8 124.3 7.5 125 L 7.5 124 L 13 122.5 L 12 120.5 L 14.5 120 L 16 119.5 L 15.5 118 L 18 119 Q 16.8 116 20.5 117 L 20.5 116 Q 17.9 116.8 19 113.5 L 25 111.5 L 24 107.5 L 26.5 107 Q 28.8 106.3 28 108.5 L 29 108.5 L 29.5 106 Z M 22 115 L 21 118 Q 20 120 23 119 L 24 116 L 22 115 Z " /><path fill="rgb(71,105,217)" stroke="rgb(71,105,217)" stroke-width="1" opacity="0.996078431372549" d="M 71.5 107 L 70.5 109 L 71.5 107 Z " /><path fill="rgb(73,97,213)" stroke="rgb(73,97,213)" stroke-width="1" opacity="0.996078431372549" d="M 164.5 11 L 166.5 11 L 170 14.5 L 171 18 Q 173.7 16.9 173 19.5 L 176 21.5 L 175.5 23 L 177 23.5 L 176 25.5 L 178 25.5 L 177 28 L 179 28.5 L 177.5 31 L 176 30.5 L 175.5 32 Q 174.2 29.8 173 32.5 L 172.5 35 L 171 34.5 Q 172.3 38.3 168.5 37 L 167.5 39 L 169.5 38 L 167.5 41 Q 163.8 39.8 165 43.5 L 164 43.5 L 163.5 42 L 163 44.5 L 166 46.5 L 163.5 47 L 161.5 46 L 160 49 L 162 49.5 L 160.5 50 L 159 49.5 Q 158.3 51.8 160.5 51 L 160.5 52 Q 157.2 50.9 158 53.5 L 153 56.5 L 155 57.5 L 153.5 58 L 152 57.5 Q 151.3 60.1 154 59 L 154 61 L 151.5 60 L 146 62 L 145 64.5 Q 147.3 65.8 144.5 67 L 143 64.5 L 145 64 L 146 58.5 L 143 53.5 L 140.5 50 L 137 47.5 L 140 41 L 142 40.5 Q 139.8 39.3 142.5 38 L 144 38.5 L 146.5 34 L 149 32.5 Q 148.3 30.3 150.5 31 L 153 30.5 Q 153.8 28.3 151.5 29 L 151.5 28 L 154 27.5 L 153.5 26 L 155.5 27 L 158 25.5 L 155 24.5 Q 154.3 22.3 156.5 23 L 161.5 15 L 164 14.5 L 162 14 Q 160.9 11.3 163.5 12 L 164.5 11 Z M 170 31 Q 168 34 171 33 L 170 31 Z " /><path fill="rgb(73,97,213)" stroke="rgb(73,97,213)" stroke-width="1" opacity="0.996078431372549" d="M 171.5 13 L 172.5 15 L 171.5 13 Z " /><path fill="rgb(73,97,213)" stroke="rgb(73,97,213)" stroke-width="1" opacity="0.996078431372549" d="M 110.5 65 Q 117.3 62.8 115 69.5 L 116.5 72 L 115 71.5 Q 115.8 74.1 112.5 73 L 113.5 71 L 115 70.5 L 114 68 L 112 67.5 L 112.5 66 Q 109.5 66.5 110.5 65 Z " /><path fill="rgb(73,97,213)" stroke="rgb(73,97,213)" stroke-width="1" opacity="0.996078431372549" d="M 112.5 74 Q 114.8 73.3 114 75.5 L 114.5 77 L 112.5 76 L 113 77.5 L 112 80.5 L 112.5 82 L 111 81.5 L 110.5 84 L 109 83.5 L 110 85.5 L 108 85.5 L 109 87.5 L 106 88.5 L 104.5 91 L 103 89.5 L 102 83.5 L 103 80.5 L 103.5 79 L 104 82 L 108 81.5 L 106.5 79 L 109 80.5 L 112.5 74 Z " /><path fill="rgb(73,97,213)" stroke="rgb(73,97,213)" stroke-width="1" opacity="0.996078431372549" d="M 80.5 110 L 81 111.5 L 81 113.5 L 80 117.5 L 81 119.5 L 79 124.5 L 79.5 126 Q 76.9 125.2 78 128.5 L 77 130.5 L 79 130.5 L 78 132.5 L 78.5 134 L 60.5 134 L 58 136.5 L 58.5 138 L 57 137.5 L 56.5 141 L 55 140.5 L 52 146.5 Q 54.3 147.8 51.5 149 L 49 149.5 L 50 151.5 L 47 156 Q 43.2 154.5 44 157.5 L 44.5 159 L 41.5 157 L 41 162 L 39 161.5 Q 41.3 160.2 38.5 159 L 37.5 163 L 36 162.5 L 34.5 165 L 33 164.5 L 34 168.5 L 33 168.5 L 32.5 167 L 31 170 L 27 170.5 L 27.5 172 Q 25.3 171.3 26 173.5 L 24 173.5 L 25 175.5 L 22 175.5 L 22.5 174 Q 16 172.5 13 167.5 Q 13.7 164.9 11 166 L 11 163.5 L 9 163.5 L 13 158.5 L 12.5 157 L 14.5 158 L 14.5 156 L 17.5 158 L 18.5 156 L 17 155.5 L 19 155 L 20.5 151 L 23 152.5 L 22 150.5 L 27 149.5 L 26 146.5 L 29.5 144 L 29.5 145 L 27 146.5 L 28.5 147 L 31 146 L 31.5 144 Q 33.2 146.7 35 142.5 L 35.5 141 L 38 142 L 39 139.5 L 39 137.5 L 41.5 134 L 44.5 135 L 45 133.5 L 44 131 L 48 130.5 L 47.5 129 Q 50.1 129.8 49 126.5 L 45 123.5 L 46.5 123 L 48.5 125 L 52.5 125 Q 58 126.5 59.5 124 L 61.5 124 L 66.5 123 L 68 123.5 L 70.5 120 L 74 119 L 75.5 116 Q 77.8 116.8 77 114.5 L 80.5 110 Z " /><path fill="rgb(68,111,220)" stroke="rgb(68,111,220)" stroke-width="1" opacity="0.996078431372549" d="M 106.5 0 L 134.5 0 L 138 1.5 L 133 2.5 Q 135.3 3.7 132.5 5 Q 129.5 4.1 131 8.5 L 129 8.5 Q 129.8 11.1 126.5 10 L 126.5 12 Q 124.7 9.2 123 13.5 Q 125.2 14.8 122.5 16 L 120 15 L 120 19 Q 117 17.8 118 21.5 L 117.5 24 L 115.5 23 L 113.5 27 L 112 26.5 L 111.5 28 L 110 27.5 Q 109.2 30.1 112.5 29 L 112.5 30 Q 108.1 28.5 109 31.5 L 109.5 33 L 104.5 32 L 104.5 33 L 107 34.5 L 104 34.5 L 103.5 33 L 102.5 35 L 99.5 31 L 93.5 26 L 89.5 25 L 88.5 27 L 85.5 26 L 84 25.5 L 90 24 L 92 18 L 95 16.5 L 93 16 L 93.5 14 L 97 15 L 97 12 L 101 10 L 101 7.5 L 104 5.5 L 101 4.5 L 103.5 3 Q 105.2 5.8 107 1.5 L 106.5 0 Z " /><path fill="rgb(68,111,220)" stroke="rgb(68,111,220)" stroke-width="1" opacity="0.996078431372549" d="M 83.5 30 L 86 34.5 L 83 36.5 Q 85.6 43.8 79.5 42 L 77.5 43 L 75.5 43 Q 73.3 42.3 74 44.5 L 73 44.5 Q 73.8 41.9 70.5 43 L 68 44 Q 66.8 41 70.5 42 L 74.5 38 L 75.5 39 Q 77.8 39.8 77 37.5 L 75.5 35 L 77.5 36 L 76.5 33 L 78.5 33 L 81.5 31 L 83 31.5 L 83.5 30 Z " /><path fill="rgb(68,111,220)" stroke="rgb(68,111,220)" stroke-width="1" opacity="0.996078431372549" d="M 71.5 36 L 70.5 38 L 71.5 36 Z " /><path fill="rgb(68,111,220)" stroke="rgb(68,111,220)" stroke-width="1" opacity="0.996078431372549" d="M 41.5 53 L 42 54.5 L 41 59.5 L 43 65 Q 45.7 63.9 45 66.5 L 41 76 L 39 76.5 L 40 78.5 L 38 78.5 L 39 80.5 L 37 81.5 L 38 83.5 L 36 83.5 L 31 93.5 L 31 97 L 29 97.5 L 29 99.5 L 26 107.5 L 26.5 109 L 25 108.5 Q 25.8 112.3 23.5 113 Q 22.3 110.8 21 113.5 L 21.5 115 L 19 113.5 L 20 116.5 L 18 116.5 L 16.5 119 Q 15.3 116.8 14 119.5 L 13.5 121 L 12 120.5 L 13 122.5 L 7 124.5 L 9 125 L 8.5 127 L 6 126 L 1.5 133 L 1 106 L 3.5 107 Q 3.3 102.8 6 101.5 Q 3.7 100.3 6.5 99 L 8.5 100 L 9.5 98 L 8 97.5 L 16 92.5 Q 13.8 91.3 16.5 90 L 22 87.5 L 20.5 85 L 23 86.5 L 22 84.5 L 31 78.5 L 32 76.5 Q 29.8 75.3 32.5 74 L 35 73.5 L 34.5 72 Q 36.8 71.3 36 73.5 L 37 73.5 L 38.5 71 L 40 70.5 L 38.5 68 Q 41.1 68.8 40 65.5 L 40 63.5 L 39 61.5 Q 41.5 60 40 54.5 L 41.5 53 Z " /><path fill="rgb(68,111,220)" stroke="rgb(68,111,220)" stroke-width="1" opacity="0.996078431372549" d="M 0.5 88 L 1 99.5 L 0 99.5 L 0.5 88 Z " /><path fill="rgb(66,106,217)" stroke="rgb(66,106,217)" stroke-width="1" opacity="1" d="M 141.5 0 Q 143.8 -0.8 143 1.5 L 141.5 0 Z " /><path fill="rgb(66,106,217)" stroke="rgb(66,106,217)" stroke-width="1" opacity="1" d="M 120.5 18 Q 122.8 17.3 122 19.5 L 120 20.5 L 120.5 18 Z " /><path fill="rgb(66,106,217)" stroke="rgb(66,106,217)" stroke-width="1" opacity="1" d="M 117.5 22 Q 120.1 21.2 119 24.5 L 118 24.5 L 117.5 22 Z " /><path fill="rgb(66,106,217)" stroke="rgb(66,106,217)" stroke-width="1" opacity="1" d="M 115.5 24 Q 117.8 23.3 117 25.5 L 115.5 24 Z " /><path fill="rgb(66,106,217)" stroke="rgb(66,106,217)" stroke-width="1" opacity="1" d="M 89.5 26 Q 96 25 97 29.5 L 93.5 27 Q 88.5 28 89.5 26 Z " /><path fill="rgb(66,106,217)" stroke="rgb(66,106,217)" stroke-width="1" opacity="1" d="M 114.5 26 L 116.5 29 Q 114.3 29.8 115 27.5 L 112 28.5 L 114.5 26 Z " /><path fill="rgb(66,106,217)" stroke="rgb(66,106,217)" stroke-width="1" opacity="1" d="M 85.5 30 L 86 33.5 L 85 33.5 L 85.5 30 Z " /><path fill="rgb(66,106,217)" stroke="rgb(66,106,217)" stroke-width="1" opacity="1" d="M 97 31 Q 100.8 30.3 102 33.5 L 106 41.5 L 103.5 40 L 102.5 41 L 100 39.5 L 100 37.5 L 99 34 Q 95.7 35.1 97 31 Z " /><path fill="rgb(66,106,217)" stroke="rgb(66,106,217)" stroke-width="1" opacity="1" d="M 84.5 35 L 86 35.5 L 86 41 L 82.5 43 L 79.5 43 L 79.5 42 Q 85.6 43.8 83 36.5 L 84.5 35 Z " /><path fill="rgb(66,106,217)" stroke="rgb(66,106,217)" stroke-width="1" opacity="1" d="M 74.5 43 L 78 43.5 L 74.5 44 L 74.5 43 Z " /><path fill="rgb(66,106,217)" stroke="rgb(66,106,217)" stroke-width="1" opacity="1" d="M 70.5 44 L 73 44.5 L 70.5 45 L 70.5 44 Z " /><path fill="rgb(66,106,217)" stroke="rgb(66,106,217)" stroke-width="1" opacity="1" d="M 66.5 45 L 69 45.5 L 66.5 46 L 66.5 45 Z " /><path fill="rgb(66,106,217)" stroke="rgb(66,106,217)" stroke-width="1" opacity="1" d="M 59.5 46 L 63 46.5 L 59.5 47 L 59.5 46 Z " /><path fill="rgb(66,106,217)" stroke="rgb(66,106,217)" stroke-width="1" opacity="1" d="M 42.5 51 L 44 55.5 L 43 58.5 Q 46.6 60.4 46 65 Q 42.3 66.5 43 63.5 Q 40.3 61.2 41 55.5 L 42.5 51 Z " /><path fill="rgb(66,106,217)" stroke="rgb(66,106,217)" stroke-width="1" opacity="1" d="M 67.5 63 Q 78.3 61.3 82 66.5 L 81.5 68 L 80.5 66 L 79.5 70 L 77 69 Q 78.3 66 74.5 67 L 74.5 68 L 76 68.5 L 73.5 70 L 71.5 69 L 72.5 71 Q 75.8 69.9 75 72.5 L 74 75 L 72 75.5 L 73 77.5 L 70 75.5 L 69 72 L 67 72 L 67 68 L 65.5 68 L 66 66.5 L 67.5 63 Z " /><path fill="rgb(66,106,217)" stroke="rgb(66,106,217)" stroke-width="1" opacity="1" d="M 75.5 76 L 75 77.5 L 73.5 80 L 74 78.5 L 75.5 76 Z " /><path fill="rgb(66,106,217)" stroke="rgb(66,106,217)" stroke-width="1" opacity="1" d="M 55.5 77 L 58 80.5 L 57 82.5 Q 60 85.5 60 91.5 L 59 91.5 L 57.5 87 L 55.5 92 L 54.5 90 L 56 90.5 Q 56.8 88.3 54.5 89 L 51 87.5 L 52 84.5 L 52 81.5 L 55.5 77 Z " /><path fill="rgb(66,106,217)" stroke="rgb(66,106,217)" stroke-width="1" opacity="1" d="M 38.5 78 L 39.5 80 Q 36.7 80.7 38.5 78 Z " /><path fill="rgb(66,106,217)" stroke="rgb(66,106,217)" stroke-width="1" opacity="1" d="M 36.5 83 Q 39.3 84.3 37 85.5 L 36 90 L 34 90.5 L 35 91.5 L 33 95.5 L 30.5 108 L 29.5 106 L 29 108.5 L 30 110.5 L 29 110.5 L 27 104.5 L 30 98.5 L 29.5 97 Q 32.5 97.9 31 93.5 L 36.5 83 Z " /><path fill="rgb(66,106,217)" stroke="rgb(66,106,217)" stroke-width="1" opacity="1" d="M 50.5 89 Q 53.5 88.1 52 92.5 L 52.5 94 Q 49.5 94.9 51 90.5 L 50.5 89 Z " /><path fill="rgb(66,106,217)" stroke="rgb(66,106,217)" stroke-width="1" opacity="1" d="M 0.5 100 L 1 140.5 L 0 140.5 L 0.5 100 Z " /><path fill="rgb(66,106,217)" stroke="rgb(66,106,217)" stroke-width="1" opacity="1" d="M 22 115 L 24 115.5 L 23 119 L 21 119.5 L 21.5 121 L 19.5 118 L 21 118.5 L 20 116.5 L 22 116.5 L 22 115 Z " /><path fill="rgb(66,106,217)" stroke="rgb(66,106,217)" stroke-width="1" opacity="1" d="M 15.5 122 L 17 124.5 L 16 124.5 L 15.5 122 Z " /><path fill="rgb(70,101,214)" stroke="rgb(70,101,214)" stroke-width="1" opacity="1" d="M 155.5 6 L 161.5 9 Q 162.8 6.8 164 9.5 L 164 12 Q 161 11 162 14 L 164.5 13 L 163.5 15 L 160 16.5 L 156.5 23 Q 154.3 22.3 155 24.5 L 158 25.5 L 155.5 27 L 153.5 26 L 153.5 28 L 151 28.5 L 153 29 L 152.5 31 L 150.5 31 Q 148.3 30.3 149 32.5 L 146 34.5 L 147.5 37 L 145 35.5 L 141.5 41 Q 138.9 40.3 140 43 L 142 43.5 L 140.5 44 Q 139.3 41.8 138 44.5 L 135.5 48 L 132.5 47 Q 131.3 49.2 126.5 48 L 123 46.5 L 123.5 45 L 122 44.5 L 126 44 L 131 34 L 134 33.5 L 131 32.5 L 134 31.5 L 132 30.5 L 134 29.5 L 134.5 31 L 135.5 27 Q 136.7 29.3 138 26.5 L 138 25 Q 141.8 26.5 141 23.5 L 143 23.5 Q 140.8 17.2 146.5 19 L 146.5 17 L 148 17.5 L 147 15.5 L 149 15.5 L 150.5 13 L 153 12.5 L 152 9.5 L 154 9.5 L 155.5 6 Z M 155 7 L 155 9 L 157 8 L 155 7 Z M 130 37 L 129 40 L 131 40 L 132 38 L 130 37 Z " /><path fill="rgb(70,101,214)" stroke="rgb(70,101,214)" stroke-width="1" opacity="1" d="M 166.5 10 L 165.5 12 L 166.5 10 Z " /><path fill="rgb(70,101,214)" stroke="rgb(70,101,214)" stroke-width="1" opacity="1" d="M 140.5 19 L 141.5 21 Q 138.7 21.7 140.5 19 Z " /><path fill="rgb(70,101,214)" stroke="rgb(70,101,214)" stroke-width="1" opacity="1" d="M 86.5 35 L 87 38.5 L 86 38.5 L 86.5 35 Z " /><path fill="rgb(70,101,214)" stroke="rgb(70,101,214)" stroke-width="1" opacity="1" d="M 99.5 36 L 101 38.5 L 99 37.5 L 99.5 36 Z " /><path fill="rgb(70,101,214)" stroke="rgb(70,101,214)" stroke-width="1" opacity="1" d="M 43.5 56 L 44 58.5 L 43 58.5 L 43.5 56 Z " /><path fill="rgb(70,101,214)" stroke="rgb(70,101,214)" stroke-width="1" opacity="1" d="M 44.5 60 L 45.5 62 L 44.5 60 Z " /><path fill="rgb(70,101,214)" stroke="rgb(70,101,214)" stroke-width="1" opacity="1" d="M 66.5 62 L 79.5 62 L 83 64.5 L 84 69.5 L 84 71.5 L 83 77.5 L 83 79.5 L 83 87.5 L 82 88.5 L 82 90.5 L 80.5 96 Q 77.3 94.8 78 91 Q 75 92.3 76 88.5 L 72.5 82 L 71 82.5 L 72 80.5 L 70 80.5 L 71 78.5 L 69 78 L 67 72.5 L 69 72 L 73 80 Q 75.7 78.9 75 81.5 L 77 85 L 80 84.5 L 79 82.5 L 81 78.5 L 81 74.5 L 82 69.5 L 82 67.5 L 79.5 64 L 67.5 63 L 65.5 67 L 63 66.5 L 66.5 62 Z " /><path fill="rgb(70,101,214)" stroke="rgb(70,101,214)" stroke-width="1" opacity="1" d="M 104.5 65 Q 110.3 64.3 113 66.5 L 112.5 68 Q 115.1 67.2 114 70.5 L 111 75.5 L 107.5 82 Q 102.7 83.7 104 79.5 L 102 73.5 L 102 68.5 L 104.5 65 Z " /><path fill="rgb(70,101,214)" stroke="rgb(70,101,214)" stroke-width="1" opacity="1" d="M 65.5 68 Q 68.1 67.2 67 70.5 L 66 70.5 L 65.5 68 Z " /><path fill="rgb(70,101,214)" stroke="rgb(70,101,214)" stroke-width="1" opacity="1" d="M 55.5 75 L 59 79.5 L 63 95.5 L 60.5 96 L 58 94.5 Q 60.8 93.8 60 89.5 L 57 81.5 Q 59.5 80 56 78.5 L 55.5 77 L 52.5 81 L 52 79.5 L 55.5 75 Z " /><path fill="rgb(70,101,214)" stroke="rgb(70,101,214)" stroke-width="1" opacity="1" d="M 41.5 76 L 40.5 78 L 41.5 76 Z " /><path fill="rgb(70,101,214)" stroke="rgb(70,101,214)" stroke-width="1" opacity="1" d="M 39.5 81 L 38.5 83 L 39.5 81 Z " /><path fill="rgb(70,101,214)" stroke="rgb(70,101,214)" stroke-width="1" opacity="1" d="M 51.5 82 L 52 84.5 L 51.5 89 L 50 89.5 L 51 96 L 47 95.5 L 51.5 82 Z " /><path fill="rgb(70,101,214)" stroke="rgb(70,101,214)" stroke-width="1" opacity="1" d="M 32.5 100 L 33 102.5 L 32 105.5 Q 34.4 116.6 42.5 122 L 45.5 124 L 49 126.5 Q 50.1 129.8 47.5 129 L 49 131.5 L 47.5 133 L 47.5 131 Q 43.1 129.5 44 132.5 L 45 134.5 L 43.5 134 L 41 134.5 Q 43.3 135.8 40.5 137 L 39 136.5 L 40 138.5 L 38 142 L 35.5 141 L 32.5 145 L 31 144.5 Q 31.8 146.8 29.5 146 L 27.5 147 L 26 146.5 L 27 149.5 Q 25 147.8 23 151.5 L 22.5 153 Q 20.7 149.3 19 152.5 Q 20.1 155.8 17.5 155 L 17.5 156 L 19 156.5 L 16.5 158 L 14.5 158 L 12 159.5 L 10 162.5 L 11 164.5 L 10 164.5 L 3 153.5 L 6 151.5 L 7.5 149 L 9 148.5 Q 6.8 147.3 9.5 146 L 14 145 L 15 141 L 17.5 142 L 18 140 L 23 137.5 L 25.5 134 L 29 132.5 L 28.5 131 L 30 131 L 30 128 Q 32.7 129.1 32 126.5 L 35 125.5 L 36 121.5 L 31 112.5 Q 33.5 111 30 109.5 L 32.5 100 Z " /><path fill="rgb(70,101,214)" stroke="rgb(70,101,214)" stroke-width="1" opacity="1" d="M 2.5 149 L 3.5 151 L 2.5 149 Z " /><path fill="rgb(75,89,208)" stroke="rgb(75,89,208)" stroke-width="1" opacity="0.996078431372549" d="M 176.5 35 L 176 38.5 L 176.5 40 L 179.5 36 L 180 37.5 L 179 40.5 L 180 41.5 L 180 70.5 L 178 74.5 L 175 81 Q 172.3 79.9 173 82.5 L 173.5 84 Q 171.3 83.3 172 85.5 L 168 88 L 167.5 92 Q 166.3 89.8 165 92.5 L 163 95.5 L 163.5 97 L 162 97.5 L 162.5 99 L 160 99.5 L 162 100.5 L 156.5 105 L 153 103 L 153 99.5 L 145 81 L 143 80.5 L 143.5 79 Q 140.9 79.8 142 76.5 L 142 74.5 L 141 71 Q 138.3 72.1 139 69.5 L 137 69.5 L 138 67.5 L 137 65.5 L 140 57 L 142 57.5 L 141 60.5 L 141.5 62 L 140 61.5 L 140 66.5 L 142 70 L 146.5 71 L 148 70.5 L 148.5 73 L 150 72.5 L 150.5 74 L 151 71 L 149 70.5 L 152 68.5 L 157.5 58 L 158.5 61 L 160 57.5 L 159 55.5 L 160 55.5 L 160.5 57 L 161.5 54 L 163 54.5 L 164.5 51 Q 166.8 51.8 166 49.5 L 169.5 44 L 172 45.5 L 174 41.5 L 173.5 40 Q 175.8 40.8 175 38.5 L 176.5 35 Z " /><path fill="rgb(75,89,208)" stroke="rgb(75,89,208)" stroke-width="1" opacity="0.996078431372549" d="M 139.5 52 L 141 54.5 L 139 53.5 L 139.5 52 Z " /><path fill="rgb(75,89,208)" stroke="rgb(75,89,208)" stroke-width="1" opacity="0.996078431372549" d="M 127.5 76 Q 129.8 75.3 129 77.5 Q 133.8 83.7 135 93.5 L 137 95.5 L 131.5 97 L 124.5 97 L 124.5 96 L 130 95.5 L 128 95 L 129 92.5 L 128.5 91 L 130 91.5 Q 131.1 88.2 128.5 89 L 128.5 88 L 130 87.5 L 130 85.5 L 129.5 84 L 128 84.5 Q 130.3 83.3 127.5 82 L 127 84 Q 124.3 82.9 125 85.5 L 124 89 L 122 89.5 L 123 95 L 119 96 Q 121.2 84.4 127.5 76 Z " /><path fill="rgb(75,89,208)" stroke="rgb(75,89,208)" stroke-width="1" opacity="0.996078431372549" d="M 100.5 92 L 101 104 Q 104.8 105.5 104 102.5 L 102 102.5 L 103.5 101 L 106 101.5 L 105 105.5 Q 107.1 113.9 113.5 118 L 125.5 124 L 127.5 123 L 130 124 L 130.5 127 L 133 125.5 Q 129.8 126.8 131 132.5 L 131.5 134 Q 130.3 131.8 129 134.5 L 129 136 Q 125.2 134.5 126 137.5 L 123 137.5 Q 125.7 135.7 121.5 134 L 100 133.5 L 101 132.5 L 101 122.5 L 100 119.5 L 101 115.5 L 100 113.5 L 101 111.5 L 100 108.5 L 100 104.5 L 100.5 92 Z " /><path fill="rgb(75,89,208)" stroke="rgb(75,89,208)" stroke-width="1" opacity="0.996078431372549" d="M 73.5 113 L 71.5 116 L 73.5 113 Z " /><path fill="rgb(75,89,208)" stroke="rgb(75,89,208)" stroke-width="1" opacity="0.996078431372549" d="M 84.5 114 L 85 134 Q 81.2 135 80 132.5 L 82 125.5 Q 79.5 124 83 122.5 L 82 119.5 L 84.5 114 Z " /><path fill="rgb(75,89,208)" stroke="rgb(75,89,208)" stroke-width="1" opacity="0.996078431372549" d="M 56 143 Q 59.7 141.7 58 147.5 L 63.5 152 L 71.5 154 L 75.5 154 Q 84.5 153 89.5 156 L 91 155.5 L 90.5 157 L 92.5 156 L 93 158 L 91 158.5 L 94 160.5 Q 90.9 162.3 92.5 164 Q 89.2 162.9 90 165.5 L 90.5 167 L 88.5 166 Q 85.8 167.3 88 168.5 Q 89.5 172.9 86.5 172 Q 85.2 169.8 84 172.5 L 84.5 174 L 82 175.5 L 82.5 177 L 80 175.5 L 81 177.5 L 78.5 176 L 77 176.5 L 78 178.5 L 76.5 180 L 37.5 180 Q 36 176.5 34.5 179 L 32 178.5 L 34 177.5 L 32 177 L 35.5 171 L 37 171.5 L 38.5 169 L 40 169.5 Q 40.8 167.3 38.5 168 L 38.5 167 Q 40.8 167.8 40 165.5 Q 41.3 162.8 42.5 165 Q 45.8 166.1 45 163.5 L 44.5 162 L 45.5 163 Q 47.3 159.9 49 161.5 Q 47.9 158.2 50.5 159 L 52.5 160 L 53 155.5 L 55 152.5 L 55 150.5 L 56 143 Z M 42 165 L 41 168 L 42 168 L 42 165 Z " /><path fill="rgb(59,87,200)" stroke="rgb(59,87,200)" stroke-width="1" opacity="0.996078431372549" d="M 163.5 8 L 164.5 10 L 163.5 8 Z " /><path fill="rgb(59,87,200)" stroke="rgb(59,87,200)" stroke-width="1" opacity="0.996078431372549" d="M 96.5 32 L 99 41.5 L 97.5 42 L 96 40.5 Q 97.3 35.8 95 34.5 L 96.5 32 Z " /><path fill="rgb(59,87,200)" stroke="rgb(59,87,200)" stroke-width="1" opacity="0.996078431372549" d="M 87.5 36 L 88 40.5 L 85.5 42 L 85.5 41 L 87 41 L 87.5 36 Z " /><path fill="rgb(59,87,200)" stroke="rgb(59,87,200)" stroke-width="1" opacity="0.996078431372549" d="M 139.5 51 L 138.5 53 L 139.5 51 Z " /><path fill="rgb(59,87,200)" stroke="rgb(59,87,200)" stroke-width="1" opacity="0.996078431372549" d="M 44.5 54 L 45 56 Q 47.7 54.9 47 57.5 L 48.5 60 L 47 60.5 L 47 62.5 L 46.5 64 L 44 58.5 L 44.5 54 Z " /><path fill="rgb(59,87,200)" stroke="rgb(59,87,200)" stroke-width="1" opacity="0.996078431372549" d="M 139.5 54 L 141 56.5 L 137.5 65 Q 134.8 63.7 137 62.5 Q 140 60 139.5 54 Z " /><path fill="rgb(59,87,200)" stroke="rgb(59,87,200)" stroke-width="1" opacity="0.996078431372549" d="M 64.5 59 L 82.5 59 L 85 60 Q 86.5 63.7 83.5 63 Q 78.4 59.6 68.5 61 L 64 63.5 L 74 89.5 L 72 88.5 L 62 63.5 L 62.5 62 L 61 61.5 L 64.5 59 Z " /><path fill="rgb(59,87,200)" stroke="rgb(59,87,200)" stroke-width="1" opacity="0.996078431372549" d="M 101.5 60 L 116.5 60 L 119 61 Q 120.1 63.7 117.5 63 L 116.5 62 L 102.5 62 L 100 65.5 L 100 104.5 L 100.5 108 L 99 107.5 L 99 95.5 L 98 94.5 L 98 64.5 L 101.5 60 Z " /><path fill="rgb(59,87,200)" stroke="rgb(59,87,200)" stroke-width="1" opacity="0.996078431372549" d="M 85.5 66 L 86 76.5 L 85 76.5 L 85.5 66 Z " /><path fill="rgb(59,87,200)" stroke="rgb(59,87,200)" stroke-width="1" opacity="0.996078431372549" d="M 55.5 67 L 57 71 L 59 71.5 L 59 73.5 Q 57.9 76.8 60.5 76 L 61 78.5 Q 59.9 81.8 62.5 81 L 62 82.5 L 67 95.5 Q 66.3 97.8 62.5 97 L 62.5 96 L 65 95.5 L 59 77.5 L 55.5 73 L 51 79.5 L 45 95.5 L 48 96.5 L 44.5 97 L 42 95.5 L 48 80.5 L 47.5 79 L 49 79.5 L 50 75.5 L 49.5 74 L 51 74.5 Q 51.5 69 55.5 67 Z " /><path fill="rgb(59,87,200)" stroke="rgb(59,87,200)" stroke-width="1" opacity="0.996078431372549" d="M 117.5 67 L 118 68.5 L 116.5 71 L 116 69.5 L 117.5 67 Z " /><path fill="rgb(59,87,200)" stroke="rgb(59,87,200)" stroke-width="1" opacity="0.996078431372549" d="M 139.5 71 Q 141.8 70.3 141 72.5 L 142 74.5 L 140 73.5 L 139.5 71 Z " /><path fill="rgb(59,87,200)" stroke="rgb(59,87,200)" stroke-width="1" opacity="0.996078431372549" d="M 115.5 72 L 116 73.5 L 114.5 76 L 114 74.5 L 115.5 72 Z " /><path fill="rgb(59,87,200)" stroke="rgb(59,87,200)" stroke-width="1" opacity="0.996078431372549" d="M 126.5 74 Q 130.5 73.5 131 76.5 L 135 89.5 L 134 89.5 L 129 76 L 126 77.5 L 119 96 L 124 96.5 L 118 97 L 118 92.5 L 126.5 74 Z " /><path fill="rgb(59,87,200)" stroke="rgb(59,87,200)" stroke-width="1" opacity="0.996078431372549" d="M 113.5 77 L 114 78.5 L 112.5 81 L 112 79.5 L 113.5 77 Z " /><path fill="rgb(59,87,200)" stroke="rgb(59,87,200)" stroke-width="1" opacity="0.996078431372549" d="M 143.5 81 Q 146.1 80.2 145 83.5 L 147 86.5 L 145 85.5 L 143.5 81 Z " /><path fill="rgb(59,87,200)" stroke="rgb(59,87,200)" stroke-width="1" opacity="0.996078431372549" d="M 111.5 82 L 112 83.5 L 110.5 86 L 110 84.5 L 111.5 82 Z " /><path fill="rgb(59,87,200)" stroke="rgb(59,87,200)" stroke-width="1" opacity="0.996078431372549" d="M 109.5 87 L 110 88.5 L 108.5 91 L 108 89.5 L 109.5 87 Z " /><path fill="rgb(59,87,200)" stroke="rgb(59,87,200)" stroke-width="1" opacity="0.996078431372549" d="M 74.5 91 L 76 94.5 L 74 93.5 L 74.5 91 Z " /><path fill="rgb(59,87,200)" stroke="rgb(59,87,200)" stroke-width="1" opacity="0.996078431372549" d="M 135.5 91 L 136 93.5 L 135 93.5 L 135.5 91 Z " /><path fill="rgb(59,87,200)" stroke="rgb(59,87,200)" stroke-width="1" opacity="0.996078431372549" d="M 106.5 95 L 107 96.5 L 106 100.5 L 106.5 102 Q 104.3 101.3 105 97.5 L 106.5 95 Z " /><path fill="rgb(59,87,200)" stroke="rgb(59,87,200)" stroke-width="1" opacity="0.996078431372549" d="M 75.5 96 Q 77.8 95.3 77 97.5 L 75.5 96 Z " /><path fill="rgb(59,87,200)" stroke="rgb(59,87,200)" stroke-width="1" opacity="0.996078431372549" d="M 132.5 96 L 135 96.5 L 132.5 97 L 132.5 96 Z " /><path fill="rgb(59,87,200)" stroke="rgb(59,87,200)" stroke-width="1" opacity="0.996078431372549" d="M 33.5 101 Q 35.9 109.6 41.5 115 L 50.5 119 L 60.5 119 L 72 112.5 Q 75.5 109 76 102.5 L 75.5 101 Q 80.1 99.7 78 105.5 Q 75.9 113.4 69.5 117 Q 63.2 122.7 49.5 121 L 38 114.5 L 35 110.5 L 33.5 101 Z " /><path fill="rgb(59,87,200)" stroke="rgb(59,87,200)" stroke-width="1" opacity="0.996078431372549" d="M 105 104 Q 108.7 102.7 107 108.5 L 113 116.5 L 108 112.5 L 105 104 Z " /><path fill="rgb(59,87,200)" stroke="rgb(59,87,200)" stroke-width="1" opacity="0.996078431372549" d="M 100.5 115 L 101 118.5 L 100 118.5 L 100.5 115 Z " /><path fill="rgb(59,87,200)" stroke="rgb(59,87,200)" stroke-width="1" opacity="0.996078431372549" d="M 65.5 134 L 72 134.5 L 65.5 135 L 65.5 134 Z " /><path fill="rgb(59,87,200)" stroke="rgb(59,87,200)" stroke-width="1" opacity="0.996078431372549" d="M 74.5 134 L 81 134.5 L 74.5 135 L 74.5 134 Z " /><path fill="rgb(59,87,200)" stroke="rgb(59,87,200)" stroke-width="1" opacity="0.996078431372549" d="M 57.5 139 L 58 142.5 L 57 142.5 L 57.5 139 Z " /><path fill="rgb(59,87,200)" stroke="rgb(59,87,200)" stroke-width="1" opacity="0.996078431372549" d="M 58.5 147 L 61.5 151 L 58.5 147 Z " /><path fill="rgb(48,66,177)" stroke="rgb(48,66,177)" stroke-width="1" opacity="1" d="M 95.5 37 L 97 41.5 L 95 42 L 95.5 37 Z " /><path fill="rgb(48,66,177)" stroke="rgb(48,66,177)" stroke-width="1" opacity="1" d="M 137.5 54 L 137 57.5 L 134.5 62 L 132 56.5 L 137.5 54 Z " /><path fill="rgb(48,66,177)" stroke="rgb(48,66,177)" stroke-width="1" opacity="1" d="M 46.5 55 L 50 56.5 L 48.5 59 L 46.5 55 Z " /><path fill="rgb(48,66,177)" stroke="rgb(48,66,177)" stroke-width="1" opacity="1" d="M 59.5 55 L 85.5 55 L 86 55.5 L 86 62.5 L 85 62.5 L 84.5 59 L 72.5 59 L 70.5 59 Q 63.3 57.3 61.5 61 L 59.5 55 Z " /><path fill="rgb(48,66,177)" stroke="rgb(48,66,177)" stroke-width="1" opacity="1" d="M 96 55 L 123 55.5 L 120.5 61 L 120 59 L 101.5 59 L 98 61.5 L 97 63.5 L 97 134 L 99 134.5 L 96 135 L 96 55 Z " /><path fill="rgb(48,66,177)" stroke="rgb(48,66,177)" stroke-width="1" opacity="1" d="M 54.5 61 L 57 67.5 Q 54.5 65.7 52 70.5 L 50.5 74 L 50 72.5 L 54.5 61 Z " /><path fill="rgb(48,66,177)" stroke="rgb(48,66,177)" stroke-width="1" opacity="1" d="M 127.5 62 L 131 71.5 L 130 71.5 L 128.5 68 L 125 69 L 115 95.5 L 117 96.5 L 114 97 L 127.5 62 Z " /><path fill="rgb(48,66,177)" stroke="rgb(48,66,177)" stroke-width="1" opacity="1" d="M 49.5 75 L 50 76.5 L 48.5 79 L 48 77.5 L 49.5 75 Z " /><path fill="rgb(48,66,177)" stroke="rgb(48,66,177)" stroke-width="1" opacity="1" d="M 132.5 75 L 135 81.5 L 134 81.5 L 132.5 75 Z " /><path fill="rgb(48,66,177)" stroke="rgb(48,66,177)" stroke-width="1" opacity="1" d="M 47.5 80 L 48 81.5 L 42 95.5 L 42.5 97 Q 40.3 97.8 41 95.5 L 47.5 80 Z " /><path fill="rgb(48,66,177)" stroke="rgb(48,66,177)" stroke-width="1" opacity="1" d="M 135.5 83 L 137 86.5 L 136 86.5 L 135.5 83 Z " /><path fill="rgb(48,66,177)" stroke="rgb(48,66,177)" stroke-width="1" opacity="1" d="M 137.5 88 L 141 97 L 138 96.5 L 140 95.5 L 137.5 88 Z " /><path fill="rgb(48,66,177)" stroke="rgb(48,66,177)" stroke-width="1" opacity="1" d="M 148.5 101 L 149 102.5 L 147 105.5 L 148 107.5 L 140.5 116 Q 135.1 119.1 126.5 119 L 115.5 115 L 112 111.5 L 107 104.5 L 109 105.5 L 111.5 109 Q 117.2 114.8 128.5 115 L 140.5 111 L 147 104.5 L 148.5 101 Z " /><path fill="rgb(48,66,177)" stroke="rgb(48,66,177)" stroke-width="1" opacity="1" d="M 74.5 104 L 74 105.5 L 72 110.5 L 68.5 114 L 59.5 118 L 50.5 118 Q 41.4 115.5 37 108.5 L 38.5 109 Q 44.4 115.1 56.5 115 L 66.5 112 L 73 106.5 L 74.5 104 Z " /><path fill="rgb(48,66,177)" stroke="rgb(48,66,177)" stroke-width="1" opacity="1" d="M 35.5 105 L 36.5 107 L 35.5 105 Z " /><path fill="rgb(48,66,177)" stroke="rgb(48,66,177)" stroke-width="1" opacity="1" d="M 85.5 113 L 86 121.5 L 85 121.5 L 85.5 113 Z " /><path fill="rgb(48,66,177)" stroke="rgb(48,66,177)" stroke-width="1" opacity="1" d="M 85.5 123 L 86 134.5 L 85 134.5 L 85.5 123 Z " /><path fill="rgb(48,66,177)" stroke="rgb(48,66,177)" stroke-width="1" opacity="1" d="M 124.5 141 L 125 142.5 L 120.5 149 L 116.5 150 L 84.5 150 L 83.5 149 L 64.5 149 L 60 145.5 L 62.5 145 L 64.5 145 L 122.5 145 L 123 143.5 L 124.5 141 Z " /><path fill="rgb(66,78,194)" stroke="rgb(66,78,194)" stroke-width="1" opacity="1" d="M 138.5 53 L 139 59.5 L 137 63 Q 134 64.3 135 60.5 L 138 56.5 L 138 54.5 L 138.5 53 Z " /><path fill="rgb(66,78,194)" stroke="rgb(66,78,194)" stroke-width="1" opacity="1" d="M 101.5 59 L 119.5 59 L 120 60.5 L 120 62.5 L 119.5 64 L 119 61 L 116.5 60 L 101.5 60 L 98 64.5 L 98 94.5 L 99 95.5 L 100 125.5 L 101 126.5 L 100 128.5 L 101 132.5 L 100.5 134 L 121.5 134 L 124 136.5 L 121.5 135 L 99.5 135 L 97 134 L 97 63.5 L 99.5 60 L 101.5 59 Z " /><path fill="rgb(66,78,194)" stroke="rgb(66,78,194)" stroke-width="1" opacity="1" d="M 85.5 63 L 86 65.5 L 85 65.5 L 85.5 63 Z " /><path fill="rgb(66,78,194)" stroke="rgb(66,78,194)" stroke-width="1" opacity="1" d="M 124.5 68 L 127.5 69 L 129 68.5 L 130 72 L 132 72.5 L 132 74.5 L 134 82 L 136 82.5 L 135 84.5 L 136 87 L 138 87.5 L 137 89.5 L 138.5 93 L 140 92.5 L 139 94.5 L 139.5 96 L 135.5 97 L 135.5 96 L 137 95.5 L 131 76.5 L 128.5 74 L 125 75.5 L 118 92.5 L 117.5 97 L 114 94.5 L 116 94.5 L 117 90.5 L 116.5 89 L 118 89.5 L 122 77.5 L 121.5 76 L 123 76.5 L 125 69.5 L 124.5 68 Z " /><path fill="rgb(66,78,194)" stroke="rgb(66,78,194)" stroke-width="1" opacity="1" d="M 138.5 70 L 140 72.5 L 138 71.5 L 138.5 70 Z " /><path fill="rgb(66,78,194)" stroke="rgb(66,78,194)" stroke-width="1" opacity="1" d="M 140.5 74 L 142 77.5 L 140 76.5 L 140.5 74 Z " /><path fill="rgb(66,78,194)" stroke="rgb(66,78,194)" stroke-width="1" opacity="1" d="M 141.5 79 Q 144.1 78.2 143 81.5 L 143.5 83 L 141.5 79 Z " /><path fill="rgb(66,78,194)" stroke="rgb(66,78,194)" stroke-width="1" opacity="1" d="M 85.5 82 L 86 107.5 L 85 107.5 L 85.5 82 Z " /><path fill="rgb(66,78,194)" stroke="rgb(66,78,194)" stroke-width="1" opacity="1" d="M 62.5 83 L 63.5 85 L 62.5 83 Z " /><path fill="rgb(66,78,194)" stroke="rgb(66,78,194)" stroke-width="1" opacity="1" d="M 145.5 86 L 148 90 L 145 89.5 L 145 87.5 L 145.5 86 Z " /><path fill="rgb(66,78,194)" stroke="rgb(66,78,194)" stroke-width="1" opacity="1" d="M 64.5 88 L 65.5 90 L 64.5 88 Z " /><path fill="rgb(66,78,194)" stroke="rgb(66,78,194)" stroke-width="1" opacity="1" d="M 147.5 91 L 148.5 93 Q 145.7 93.7 147.5 91 Z " /><path fill="rgb(66,78,194)" stroke="rgb(66,78,194)" stroke-width="1" opacity="1" d="M 66.5 93 L 67.5 95 L 66.5 93 Z " /><path fill="rgb(66,78,194)" stroke="rgb(66,78,194)" stroke-width="1" opacity="1" d="M 147.5 94 L 150 94.5 Q 147.9 97.8 147.5 94 Z " /><path fill="rgb(66,78,194)" stroke="rgb(66,78,194)" stroke-width="1" opacity="1" d="M 150.5 96 L 152 101.5 L 152 103.5 Q 150.5 113 144.5 118 L 133.5 122 L 123.5 122 Q 113.6 119.9 109 112.5 L 107 105.5 L 108 105.5 L 108.5 107 L 110 106.5 L 109 107.5 L 112 110.5 L 115.5 115 Q 120.8 119.2 130.5 119 L 140.5 116 L 147 109.5 L 148 106.5 L 148 104.5 L 149 101.5 L 149 99.5 L 148 97.5 L 150.5 96 Z " /><path fill="rgb(66,78,194)" stroke="rgb(66,78,194)" stroke-width="1" opacity="1" d="M 76.5 98 L 77 100.5 L 76 100.5 L 76.5 98 Z " /><path fill="rgb(66,78,194)" stroke="rgb(66,78,194)" stroke-width="1" opacity="1" d="M 74.5 105 L 75 107.5 L 70.5 114 L 60.5 119 L 50.5 119 L 46.5 118 L 39 112.5 L 38 110.5 L 43.5 115 Q 48.6 119.4 59.5 118 Q 67.8 116.3 72 110.5 L 74.5 105 Z " /><path fill="rgb(66,78,194)" stroke="rgb(66,78,194)" stroke-width="1" opacity="1" d="M 36.5 107 L 39 108.5 L 37.5 108 L 36.5 107 Z " /><path fill="rgb(66,78,194)" stroke="rgb(66,78,194)" stroke-width="1" opacity="1" d="M 85.5 110 L 86 112.5 L 85 112.5 L 85.5 110 Z " /><path fill="rgb(66,78,194)" stroke="rgb(66,78,194)" stroke-width="1" opacity="1" d="M 52.5 114 L 57 114.5 L 52.5 115 L 52.5 114 Z " /><path fill="rgb(66,78,194)" stroke="rgb(66,78,194)" stroke-width="1" opacity="1" d="M 125.5 114 L 129 114.5 L 125.5 115 L 125.5 114 Z " /><path fill="rgb(66,78,194)" stroke="rgb(66,78,194)" stroke-width="1" opacity="1" d="M 124.5 138 L 125 140.5 L 124 140.5 L 124.5 138 Z " /><path fill="rgb(66,78,194)" stroke="rgb(66,78,194)" stroke-width="1" opacity="1" d="M 58.5 143 L 62.5 148 L 64.5 149 L 83.5 149 L 84.5 150 L 116.5 150 L 120.5 149 L 123 146.5 L 122 144.5 L 124 144.5 Q 123.2 141.5 127 143 Q 128.3 150.3 122.5 152 L 119.5 153 L 79.5 153 L 76.5 152 L 74.5 153 L 72.5 152 L 70.5 153 L 62.5 151 L 58 146.5 L 59 144.5 L 58.5 143 Z " /><path fill="rgb(66,78,194)" stroke="rgb(66,78,194)" stroke-width="1" opacity="1" d="M 174.5 161 L 173.5 163 L 174.5 161 Z " /><path fill="rgb(66,78,194)" stroke="rgb(66,78,194)" stroke-width="1" opacity="1" d="M 171.5 165 L 168.5 169 L 171.5 165 Z " /><path fill="rgb(0,0,0)" stroke="rgb(0,0,0)" stroke-width="1" opacity="0" d="M 0 0 L 36 0.5 L 30.5 1 L 22.5 4 L 8 16.5 L 3 24.5 Q 0.3 29.8 0.5 38 L 0 0 Z " /><path fill="rgb(0,0,0)" stroke="rgb(0,0,0)" stroke-width="1" opacity="0" d="M 147.5 0 L 180 0 L 180 24.5 L 179 24.5 Q 175.2 14.8 167.5 9 L 155.5 2 L 147.5 1 L 147.5 0 Z " /><path fill="rgb(0,0,0)" stroke="rgb(0,0,0)" stroke-width="1" opacity="0" d="M 0.5 145 Q 0.4 154.1 4 159.5 Q 8.9 169.1 17.5 175 L 27 179.5 L 0 180 L 0.5 145 Z " /><path fill="rgb(0,0,0)" stroke="rgb(0,0,0)" stroke-width="1" opacity="0" d="M 179.5 157 L 180 180 L 156 179.5 Q 168.1 175.1 175 165.5 L 179.5 157 Z " /><path fill="rgb(70,95,211)" stroke="rgb(70,95,211)" stroke-width="1" opacity="1" d="M 155.5 4 L 158 5.5 L 156.5 5 L 155.5 4 Z " /><path fill="rgb(70,95,211)" stroke="rgb(70,95,211)" stroke-width="1" opacity="1" d="M 159.5 6 L 162 7.5 L 160.5 7 L 159.5 6 Z " /><path fill="rgb(70,95,211)" stroke="rgb(70,95,211)" stroke-width="1" opacity="1" d="M 167.5 11 L 175 20.5 L 173 19.5 L 167.5 11 Z " /><path fill="rgb(70,95,211)" stroke="rgb(70,95,211)" stroke-width="1" opacity="1" d="M 176.5 24 L 178 27.5 L 177 27.5 L 176.5 24 Z " /><path fill="rgb(70,95,211)" stroke="rgb(70,95,211)" stroke-width="1" opacity="1" d="M 173.5 28 L 175 28.5 L 173 29.5 L 176 31.5 L 176.5 30 L 178 30.5 L 178.5 29 L 180 32.5 L 178 32.5 L 180 35.5 L 179 37.5 L 180 40.5 L 179 40.5 L 178.5 38 L 176 39.5 L 175.5 38 L 175 40 L 173 40.5 L 173 42.5 L 171.5 46 L 169 44.5 L 170 46.5 L 167 47.5 L 166 51 L 163 52.5 L 163 54.5 L 157.5 62 L 158 60.5 L 157.5 58 L 155 63.5 L 155.5 65 L 154 64.5 L 150.5 70 L 149 70.5 L 151 71 L 150.5 74 L 149.5 72 L 148 72.5 L 147.5 70 L 144.5 71 L 142 70 L 140 66.5 L 140 61.5 L 142 57.5 L 139 50.5 L 140.5 50 L 145 55.5 Q 142.5 57 146 58.5 L 145 63.5 L 146 63.5 Q 145.2 60.9 148.5 62 L 151.5 60 L 154 61 L 154 59 Q 151.3 60.1 152 57.5 L 158 53.5 Q 157.2 50.9 160.5 52 L 160.5 51 Q 158.3 51.8 159 49.5 L 161.5 46 L 165.5 47 L 165.5 46 L 163 44.5 L 163.5 42 L 164.5 44 L 165 41 L 169 39.5 L 166 37.5 L 168.5 37 Q 172.3 38.3 171 34.5 L 173 34.5 L 174 31.5 Q 170.3 29.8 173.5 28 Z M 144 64 L 144 67 L 146 66 L 144 64 Z " /><path fill="rgb(70,95,211)" stroke="rgb(70,95,211)" stroke-width="1" opacity="1" d="M 169.5 31 L 170.5 33 Q 167.7 33.7 169.5 31 Z " /><path fill="rgb(70,95,211)" stroke="rgb(70,95,211)" stroke-width="1" opacity="1" d="M 97.5 34 Q 100.7 36.3 100 42.5 L 99 42.5 L 97.5 34 Z " /><path fill="rgb(70,95,211)" stroke="rgb(70,95,211)" stroke-width="1" opacity="1" d="M 164.5 39 L 163.5 41 L 164.5 39 Z " /><path fill="rgb(70,95,211)" stroke="rgb(70,95,211)" stroke-width="1" opacity="1" d="M 113.5 45 L 116 45.5 L 113.5 46 L 113.5 45 Z " /><path fill="rgb(70,95,211)" stroke="rgb(70,95,211)" stroke-width="1" opacity="1" d="M 118.5 46 L 123 46.5 L 118.5 47 L 118.5 46 Z " /><path fill="rgb(70,95,211)" stroke="rgb(70,95,211)" stroke-width="1" opacity="1" d="M 155.5 51 L 155.5 54 Q 152.5 52.5 155.5 51 Z " /><path fill="rgb(70,95,211)" stroke="rgb(70,95,211)" stroke-width="1" opacity="1" d="M 68.5 61 L 79 61.5 L 68.5 62 L 68.5 61 Z " /><path fill="rgb(70,95,211)" stroke="rgb(70,95,211)" stroke-width="1" opacity="1" d="M 65.5 62 L 64.5 64 L 65.5 62 Z " /><path fill="rgb(70,95,211)" stroke="rgb(70,95,211)" stroke-width="1" opacity="1" d="M 80.5 62 L 85 63 L 85 113.5 L 82 119.5 L 83 122.5 L 81 126.5 L 80 132.5 L 80.5 134 L 78 132.5 L 77 129.5 L 78 126 L 80 125.5 L 80 123.5 L 81 118.5 L 79 118.5 Q 81.8 117.8 81 113.5 Q 79 110 77 114.5 Q 77.8 116.8 75.5 116 L 74 119 L 69 121.5 L 69.5 123 L 68 122.5 L 67.5 124 L 64.5 123 L 60.5 125 L 58.5 125 Q 53 126.5 51.5 124 L 48.5 125 L 46.5 123 L 44.5 124 L 44 122 L 36 115.5 L 32 105.5 L 32.5 103 Q 35.9 102.1 34 107.5 L 39.5 116 Q 46.3 123.2 62.5 121 L 74 113.5 Q 78 109.5 78 101.5 L 74 88.5 L 71 83.5 L 71 81.5 L 71.5 80 L 76 91 Q 79 89.8 78 93.5 L 81 95.5 L 83 89.5 L 83 87.5 L 83 79.5 L 84 78.5 L 83 74.5 L 84 71.5 L 84 69.5 L 81.5 63 L 80.5 62 Z " /><path fill="rgb(70,95,211)" stroke="rgb(70,95,211)" stroke-width="1" opacity="1" d="M 102.5 62 Q 112.8 60.8 118 63 L 119 66.5 L 116 67 L 115 70.5 L 115.5 72 Q 112.8 70.7 115 69.5 L 115 65 L 104.5 65 Q 101 67 102 73.5 Q 104.5 75 103 80.5 L 102 83.5 L 103 89.5 L 104.5 91 L 109.5 83 L 110 84.5 L 109.5 86 L 111 86.5 L 108 87.5 L 109 88.5 L 107.5 91 L 109 91.5 L 106 92 L 105 95.5 L 105 97.5 L 104 104 L 101 103.5 L 101 92.5 L 100 91.5 L 100 65.5 L 102.5 62 Z " /><path fill="rgb(70,95,211)" stroke="rgb(70,95,211)" stroke-width="1" opacity="1" d="M 55.5 73 L 59 78.5 L 57 77.5 L 55.5 75 Q 51.4 77.9 50.5 84 L 50 82.5 L 55.5 73 Z " /><path fill="rgb(70,95,211)" stroke="rgb(70,95,211)" stroke-width="1" opacity="1" d="M 59.5 80 L 65 95.5 L 63.5 96 L 62 94.5 L 59.5 80 Z " /><path fill="rgb(70,95,211)" stroke="rgb(70,95,211)" stroke-width="1" opacity="1" d="M 128.5 81 Q 126.9 82.8 130 84.5 L 129 86.5 Q 132.5 88 130 89.5 L 128 95 L 130 95.5 L 121.5 96 L 121.5 95 Q 124.9 95.9 123 90.5 L 122.5 89 Q 125.1 89.8 124 86.5 L 125 84 Q 127.7 85.1 127 82.5 L 128.5 81 Z " /><path fill="rgb(70,95,211)" stroke="rgb(70,95,211)" stroke-width="1" opacity="1" d="M 37.5 85 L 38 86.5 L 36.5 89 L 36 87.5 L 37.5 85 Z " /><path fill="rgb(70,95,211)" stroke="rgb(70,95,211)" stroke-width="1" opacity="1" d="M 49.5 85 L 50 88.5 L 46.5 96 L 45 95.5 L 49.5 85 Z " /><path fill="rgb(70,95,211)" stroke="rgb(70,95,211)" stroke-width="1" opacity="1" d="M 48.5 96 L 62 96.5 L 48.5 97 L 48.5 96 Z " /><path fill="rgb(70,95,211)" stroke="rgb(70,95,211)" stroke-width="1" opacity="1" d="M 32.5 98 L 34 100.5 L 32 99.5 L 32.5 98 Z " /><path fill="rgb(70,95,211)" stroke="rgb(70,95,211)" stroke-width="1" opacity="1" d="M 60.5 134 L 59.5 136 L 60.5 134 Z " /><path fill="rgb(70,95,211)" stroke="rgb(70,95,211)" stroke-width="1" opacity="1" d="M 55.5 140 L 57 142.5 L 54 151.5 L 55 154 Q 52.3 152.9 53 155.5 L 52.5 160 L 50.5 161 L 50.5 159 Q 47.9 158.2 49 161.5 Q 47 159.8 45 163.5 L 46 165.5 L 44.5 165 Q 40.8 163.8 42 167.5 L 41 167.5 Q 42.1 164.2 39.5 165 L 39.5 167 L 38 167.5 L 40 168 L 39.5 170 Q 38.3 167.8 37 170.5 L 36.5 172 Q 35.3 169.8 34 172.5 Q 33.3 174.8 35.5 174 L 35.5 175 L 33.5 174 L 32 177 L 34 177.5 L 30 179 L 29.5 177 L 27.5 178 L 21 174.5 L 22.5 174 L 24 174.5 L 24.5 173 L 26 173.5 Q 25.3 171.3 27.5 172 L 27.5 170 Q 31.9 171.5 31 168.5 L 33.5 164 Q 34.8 166.3 36 163.5 L 36.5 162 L 38 162.5 L 38.5 159 L 39.5 162 Q 42.9 162.9 41 157.5 L 42.5 158 Q 45.1 158.7 44 156 L 47 156 L 47 154.5 L 45 151.5 L 47 152.5 L 47.5 154 L 48.5 151 L 50 151.5 L 49 149.5 L 53 147.5 L 53 145.5 L 55.5 140 Z M 30 172 L 30 175 L 31 175 Q 32 171 30 172 Z " /><path fill="rgb(70,95,211)" stroke="rgb(70,95,211)" stroke-width="1" opacity="1" d="M 7.5 161 L 8.5 163 L 7.5 161 Z " /><path fill="rgb(70,95,211)" stroke="rgb(70,95,211)" stroke-width="1" opacity="1" d="M 29.5 164 L 27.5 167 L 29.5 164 Z " /><path fill="rgb(70,95,211)" stroke="rgb(70,95,211)" stroke-width="1" opacity="1" d="M 11.5 166 L 16.5 172 L 11.5 166 Z " /><path fill="rgb(70,95,211)" stroke="rgb(70,95,211)" stroke-width="1" opacity="1" d="M 18.5 172 L 19.5 174 L 18.5 172 Z " /><path fill="rgb(70,95,211)" stroke="rgb(70,95,211)" stroke-width="1" opacity="1" d="M 35.5 178 L 36.5 180 L 33 179.5 L 35.5 178 Z " /><path fill="rgb(181,189,225)" stroke="rgb(181,189,225)" stroke-width="1" opacity="0.9333333333333333" d="M 156.5 3 Q 165.2 5.8 170 12.5 L 164.5 8 L 156.5 4 L 156.5 3 Z " /><path fill="rgb(181,189,225)" stroke="rgb(181,189,225)" stroke-width="1" opacity="0.9333333333333333" d="M 19.5 6 L 18.5 8 L 19.5 6 Z " /><path fill="rgb(181,189,225)" stroke="rgb(181,189,225)" stroke-width="1" opacity="0.9333333333333333" d="M 16.5 8 L 8.5 17 L 16.5 8 Z " /><path fill="rgb(181,189,225)" stroke="rgb(181,189,225)" stroke-width="1" opacity="0.9333333333333333" d="M 171.5 14 L 172.5 16 L 171.5 14 Z " /><path fill="rgb(181,189,225)" stroke="rgb(181,189,225)" stroke-width="1" opacity="0.9333333333333333" d="M 7.5 18 L 6.5 20 L 7.5 18 Z " /><path fill="rgb(181,189,225)" stroke="rgb(181,189,225)" stroke-width="1" opacity="0.9333333333333333" d="M 174.5 18 L 175.5 20 L 174.5 18 Z " /><path fill="rgb(181,189,225)" stroke="rgb(181,189,225)" stroke-width="1" opacity="0.9333333333333333" d="M 89.5 27 L 93 27.5 L 89.5 28 L 89.5 27 Z " /><path fill="rgb(181,189,225)" stroke="rgb(181,189,225)" stroke-width="1" opacity="0.9333333333333333" d="M 95.5 30 L 96 32.5 L 95 32.5 L 95.5 30 Z " /><path fill="rgb(181,189,225)" stroke="rgb(181,189,225)" stroke-width="1" opacity="0.9333333333333333" d="M 88.5 41 L 87.5 43 L 86 42.5 L 88.5 41 Z " /><path fill="rgb(181,189,225)" stroke="rgb(181,189,225)" stroke-width="1" opacity="0.9333333333333333" d="M 60.5 47 L 63 47.5 L 60.5 48 L 60.5 47 Z " /><path fill="rgb(181,189,225)" stroke="rgb(181,189,225)" stroke-width="1" opacity="0.9333333333333333" d="M 118.5 47 L 121 47.5 L 118.5 48 L 118.5 47 Z " /><path fill="rgb(181,189,225)" stroke="rgb(181,189,225)" stroke-width="1" opacity="0.9333333333333333" d="M 136.5 48 L 137.5 50 L 136.5 48 Z " /><path fill="rgb(181,189,225)" stroke="rgb(181,189,225)" stroke-width="1" opacity="0.9333333333333333" d="M 44.5 53 L 45.5 55 L 44.5 53 Z " /><path fill="rgb(181,189,225)" stroke="rgb(181,189,225)" stroke-width="1" opacity="0.9333333333333333" d="M 58 54 L 85 54.5 L 59.5 55 L 58.5 56 L 58 54 Z " /><path fill="rgb(181,189,225)" stroke="rgb(181,189,225)" stroke-width="1" opacity="0.9333333333333333" d="M 96.5 54 L 123 54.5 L 96 55 L 96 134.5 L 96.5 135 L 120.5 135 L 120.5 136 L 96.5 136 L 95 134.5 L 95 55.5 L 96.5 54 Z " /><path fill="rgb(181,189,225)" stroke="rgb(181,189,225)" stroke-width="1" opacity="0.9333333333333333" d="M 54.5 60 L 55.5 62 L 54.5 60 Z " /><path fill="rgb(181,189,225)" stroke="rgb(181,189,225)" stroke-width="1" opacity="0.9333333333333333" d="M 127.5 60 L 126.5 62 L 127.5 60 Z " /><path fill="rgb(181,189,225)" stroke="rgb(181,189,225)" stroke-width="1" opacity="0.9333333333333333" d="M 108.5 104 L 109.5 106 L 108.5 104 Z " /><path fill="rgb(181,189,225)" stroke="rgb(181,189,225)" stroke-width="1" opacity="0.9333333333333333" d="M 36.5 105 L 37.5 107 L 36.5 105 Z " /><path fill="rgb(181,189,225)" stroke="rgb(181,189,225)" stroke-width="1" opacity="0.9333333333333333" d="M 145.5 105 L 144.5 107 L 145.5 105 Z " /><path fill="rgb(181,189,225)" stroke="rgb(181,189,225)" stroke-width="1" opacity="0.9333333333333333" d="M 39.5 108 L 40.5 110 L 39.5 108 Z " /><path fill="rgb(181,189,225)" stroke="rgb(181,189,225)" stroke-width="1" opacity="0.9333333333333333" d="M 142.5 108 L 141.5 110 L 142.5 108 Z " /><path fill="rgb(181,189,225)" stroke="rgb(181,189,225)" stroke-width="1" opacity="0.9333333333333333" d="M 61.5 135 L 87 135.5 L 61.5 136 L 61.5 135 Z " /><path fill="rgb(181,189,225)" stroke="rgb(181,189,225)" stroke-width="1" opacity="0.9333333333333333" d="M 59.5 143 L 60.5 145 L 59.5 143 Z " /><path fill="rgb(181,189,225)" stroke="rgb(181,189,225)" stroke-width="1" opacity="0.9333333333333333" d="M 122.5 143 L 121.5 145 L 122.5 143 Z " /><path fill="rgb(181,189,225)" stroke="rgb(181,189,225)" stroke-width="1" opacity="0.9333333333333333" d="M 5.5 160 L 6.5 162 L 5.5 160 Z " /><path fill="rgb(181,189,225)" stroke="rgb(181,189,225)" stroke-width="1" opacity="0.9333333333333333" d="M 7.5 163 L 8.5 165 L 7.5 163 Z " /><path fill="rgb(181,189,225)" stroke="rgb(181,189,225)" stroke-width="1" opacity="0.9333333333333333" d="M 173.5 164 L 171.5 167 L 173.5 164 Z " /><path fill="rgb(181,189,225)" stroke="rgb(181,189,225)" stroke-width="1" opacity="0.9333333333333333" d="M 10.5 167 L 12.5 170 L 10.5 167 Z " /><path fill="rgb(181,189,225)" stroke="rgb(181,189,225)" stroke-width="1" opacity="0.9333333333333333" d="M 166.5 171 L 169 171.5 L 167.5 173 L 165 172.5 L 166.5 171 Z " /><path fill="rgb(181,189,225)" stroke="rgb(181,189,225)" stroke-width="1" opacity="0.9333333333333333" d="M 16.5 172 L 17.5 174 L 16.5 172 Z " /><path fill="rgb(181,189,225)" stroke="rgb(181,189,225)" stroke-width="1" opacity="0.9333333333333333" d="M 160.5 175 L 159.5 177 L 160.5 175 Z " /><path fill="rgb(181,189,225)" stroke="rgb(181,189,225)" stroke-width="1" opacity="0.9333333333333333" d="M 156.5 177 Q 158.8 176.3 158 178.5 Q 156.3 176.9 154.5 180 L 151 179.5 L 156.5 177 Z " /><path fill="rgb(246,246,245)" stroke="rgb(246,246,245)" stroke-width="1" opacity="0.996078431372549" d="M 88.5 28 Q 93.8 26.8 95 29.5 L 94 43 L 104.5 44 L 118.5 48 L 135.5 48 L 138 50.5 L 136.5 54 L 131 55 L 145 89.5 L 148 100.5 L 144 108 L 134.5 113 L 124.5 114 Q 115 112.4 110 106.5 Q 106.1 103.9 107 96.5 L 123 58.5 L 123 54 L 96.5 54 L 95 55.5 L 95 134.5 L 96.5 136 L 121.5 136 L 123 137.5 Q 124.3 143.8 120.5 145 L 61.5 145 L 59 142.5 Q 57.8 137.3 60.5 136 L 86.5 136 L 87 135.5 L 87 54 L 58.5 54 L 58 55.5 L 75 96.5 L 75 101.5 L 69.5 109 Q 63.3 114.3 51.5 114 Q 42.9 112.4 38 108 L 35 103.5 L 34 97.5 L 51 55 Q 45.5 56.3 44 52.5 Q 42.5 48.1 45.5 49 L 46.5 48 L 68.5 47 Q 76.2 43.2 87.5 43 L 89 41.5 L 88 40.5 L 87 29.5 L 88.5 28 Z M 55 60 L 40 98 L 70 98 L 55 60 Z M 128 60 L 113 96 L 114 98 L 142 98 L 128 60 Z " /><path fill="rgb(246,246,245)" stroke="rgb(246,246,245)" stroke-width="1" opacity="0.996078431372549" d="M 179.5 154 L 180 156.5 Q 176.5 165.5 169.5 171 L 167 172.5 Q 167.8 174.8 165.5 174 L 158.5 178 L 158.5 177 Q 168.2 172.7 174 164.5 L 179.5 154 Z " /><path fill="rgb(246,246,245)" stroke="rgb(246,246,245)" stroke-width="1" opacity="0.996078431372549" d="M 156.5 178 L 155.5 180 L 156.5 178 Z " /><path fill="rgb(80,79,202)" stroke="rgb(80,79,202)" stroke-width="1" opacity="0.996078431372549" d="M 179.5 73 L 180 146.5 L 179 148.5 L 180 151 Q 177.3 149.9 178 152.5 L 179 153.5 Q 175.9 155.2 177.5 157 L 176 157.5 L 176.5 159 L 175 159.5 L 175.5 161 L 173 162.5 Q 175.3 163.8 172.5 165 L 168 168.5 L 164.5 173 L 149.5 180 L 77.5 180 L 78 178.5 L 77 176.5 L 78.5 176 L 80 176.5 L 80.5 175 Q 82 177.5 83.5 174 L 85 173.5 Q 82.3 171.8 86.5 170 L 86.5 172 Q 89.5 172.9 88 168.5 Q 85.8 167.3 88.5 166 Q 91.1 166.7 90 164 L 92.5 164 L 93.5 160 L 91 158.5 L 93 158 L 92.5 156 L 89.5 158 L 89.5 156 Q 83.9 153.1 75 153.5 L 78.5 152 L 79.5 153 L 119.5 153 L 127 147.5 L 127 143.5 Q 123.7 144.5 125 138.5 L 124.5 137 L 126 137.5 L 126 136 Q 129.8 137.5 129 134.5 Q 132.3 133.3 131 127.5 L 130 124 L 127.5 125 L 127.5 123 L 125.5 124 L 118 120.5 L 119.5 120 Q 123.8 123.7 133.5 122 L 146 116.5 Q 151.1 112.1 152 103.5 L 151 100.5 L 151.5 97 L 153 103 L 155.5 104 L 157.5 104 L 162 100.5 L 160.5 100 L 159 100.5 L 163 98.5 L 162.5 97 L 164 96.5 Q 161.5 95 165 93.5 L 166.5 91 L 168 91.5 Q 166.5 87.1 169.5 88 L 172 84 L 174 83.5 L 173 81 Q 175.7 82.1 175 79.5 L 179.5 73 Z " /><path fill="rgb(80,79,202)" stroke="rgb(80,79,202)" stroke-width="1" opacity="0.996078431372549" d="M 148.5 89 L 149 91 L 147 90.5 L 148.5 89 Z " /><path fill="rgb(80,79,202)" stroke="rgb(80,79,202)" stroke-width="1" opacity="0.996078431372549" d="M 149 95 L 151 95.5 L 149 96.5 L 149 95 Z " /><path fill="rgb(80,79,202)" stroke="rgb(80,79,202)" stroke-width="1" opacity="0.996078431372549" d="M 72.5 152 Q 74.8 151.3 74 153.5 L 71 153.5 L 72.5 152 Z " /></svg>