<svg width="32" height="32" version="1.1" xmlns="http://www.w3.org/2000/svg" desc="Created with imagetracer.js version 1.2.6" ><path fill="rgb(68,104,216)" stroke="rgb(68,104,216)" stroke-width="1" opacity="0.996078431372549" d="M 23 0 L 27 1.5 L 24 7 L 18 6.5 L 21 2 Q 24 3 23 0 Z " /><path fill="rgb(68,104,216)" stroke="rgb(68,104,216)" stroke-width="1" opacity="0.996078431372549" d="M 4.5 19 Q 6.8 18.3 6 20.5 L 7 21.5 L 2 26.5 L 1.5 28 L 0 22 L 4.5 19 Z " /><path fill="rgb(70,97,212)" stroke="rgb(70,97,212)" stroke-width="1" opacity="0.9921568627450981" d="M 27.5 2 L 29.5 3 L 31 2.5 L 31 4.5 L 27 8.5 L 25.5 11 Q 27.1 9.3 24 7.5 Q 23.5 2.5 27.5 2 Z " /><path fill="rgb(70,97,212)" stroke="rgb(70,97,212)" stroke-width="1" opacity="0.9921568627450981" d="M 19.5 11 L 20 12.5 L 18.5 15 L 18 12.5 L 19.5 11 Z " /><path fill="rgb(70,97,212)" stroke="rgb(70,97,212)" stroke-width="1" opacity="0.9921568627450981" d="M 6.5 20 Q 7.6 22.8 11 22 L 11 24 Q 8.3 22.9 9 25.5 L 4.5 31 Q 1.5 30.5 2 26.5 L 7 21.5 L 6.5 20 Z " /><path fill="rgb(70,97,212)" stroke="rgb(70,97,212)" stroke-width="1" opacity="0.9921568627450981" d="M 13.5 20 L 14 22 L 12 21.5 L 13.5 20 Z " /><path fill="rgb(95,120,221)" stroke="rgb(95,120,221)" stroke-width="1" opacity="0.2" d="M 3.5 1 L 1.5 4 L 3.5 1 Z " /><path fill="rgb(95,120,221)" stroke="rgb(95,120,221)" stroke-width="1" opacity="0.2" d="M 1.5 29 L 3.5 32 L 1.5 29 Z " /><path fill="rgb(208,213,233)" stroke="rgb(208,213,233)" stroke-width="1" opacity="0.996078431372549" d="M 16.5 5 L 17 8 L 24 9.5 L 24 11.5 L 26 19 L 21.5 20 L 19 19 L 22 10.5 L 17 10 L 17 24 L 21.5 24 L 21.5 25 L 11 24.5 L 16 22.5 L 15 21.5 L 15 11.5 L 15.5 10 Q 10.1 8.1 11 11.5 L 13 18.5 Q 12.3 20.8 8.5 20 Q 4.3 18.2 7 16.5 L 9 10.5 L 8.5 9 L 16 8 L 16.5 5 Z M 23 11 L 21 16 L 21 17 L 25 17 L 23 11 Z M 9 12 L 8 15 Q 7 19 12 17 L 11 15 Q 12 11 9 12 Z " /><path fill="rgb(208,213,233)" stroke="rgb(208,213,233)" stroke-width="1" opacity="0.996078431372549" d="M 31.5 27 L 32 29.5 Q 31.5 32.5 27.5 32 L 27.5 31 L 31 28.5 L 31.5 27 Z " /><path fill="rgb(63,121,224)" stroke="rgb(63,121,224)" stroke-width="1" opacity="0.996078431372549" d="M 7.5 0 L 15.5 0 L 16 2 L 14 2 L 14 4 Q 11.3 2.9 12 5.5 L 8 7 L 5.5 12 L 0.5 16 L 0 7.5 L 4.5 1 L 7.5 0 Z " /><path fill="rgb(53,97,215)" stroke="rgb(53,97,215)" stroke-width="1" opacity="1" d="M 10.5 7 L 13 7.5 L 10.5 8 L 10.5 7 Z " /><path fill="rgb(53,97,215)" stroke="rgb(53,97,215)" stroke-width="1" opacity="1" d="M 19.5 7 L 24 7.5 L 19.5 8 L 19.5 7 Z " /><path fill="rgb(53,97,215)" stroke="rgb(53,97,215)" stroke-width="1" opacity="1" d="M 14.5 12 L 15 14.5 L 13 15.5 L 14.5 12 Z " /><path fill="rgb(53,97,215)" stroke="rgb(53,97,215)" stroke-width="1" opacity="1" d="M 10.5 15 L 11 17 L 9 16.5 L 10.5 15 Z " /><path fill="rgb(53,97,215)" stroke="rgb(53,97,215)" stroke-width="1" opacity="1" d="M 5.5 16 L 6 18.5 L 5 18.5 L 5.5 16 Z " /><path fill="rgb(90,109,207)" stroke="rgb(90,109,207)" stroke-width="1" opacity="1" d="M 27.5 1 L 32 4.5 L 31.5 6 L 28.5 2 L 27.5 1 Z " /><path fill="rgb(90,109,207)" stroke="rgb(90,109,207)" stroke-width="1" opacity="1" d="M 24.5 8 L 25 9.5 L 23 10.5 L 24.5 8 Z " /><path fill="rgb(90,109,207)" stroke="rgb(90,109,207)" stroke-width="1" opacity="1" d="M 9.5 12 L 10.5 14 L 9.5 12 Z " /><path fill="rgb(90,109,207)" stroke="rgb(90,109,207)" stroke-width="1" opacity="1" d="M 13.5 18 L 12.5 20 L 13.5 18 Z " /><path fill="rgb(90,109,207)" stroke="rgb(90,109,207)" stroke-width="1" opacity="1" d="M 11.5 23 L 15 23.5 L 11.5 24 L 11.5 23 Z " /><path fill="rgb(90,109,207)" stroke="rgb(90,109,207)" stroke-width="1" opacity="1" d="M 17.5 23 L 22 23.5 L 17.5 24 L 17.5 23 Z " /><path fill="rgb(90,109,207)" stroke="rgb(90,109,207)" stroke-width="1" opacity="1" d="M 1.5 28 L 6 31.5 L 4.5 32 L 1.5 28 Z " /><path fill="rgb(53,82,203)" stroke="rgb(53,82,203)" stroke-width="1" opacity="1" d="M 24.5 11 L 26 13.5 L 25 13.5 L 24.5 11 Z " /><path fill="rgb(53,82,203)" stroke="rgb(53,82,203)" stroke-width="1" opacity="1" d="M 9.5 13 L 10.5 15 Q 7.7 15.7 9.5 13 Z " /><path fill="rgb(53,82,203)" stroke="rgb(53,82,203)" stroke-width="1" opacity="1" d="M 14.5 18 L 15 22.5 L 14 22.5 L 13.5 20 L 12 20.5 L 14.5 18 Z " /><path fill="rgb(53,82,203)" stroke="rgb(53,82,203)" stroke-width="1" opacity="1" d="M 6.5 19 L 7.5 21 L 6.5 19 Z " /><path fill="rgb(133,143,208)" stroke="rgb(133,143,208)" stroke-width="1" opacity="1" d="M 15.5 5 L 16 7.5 L 15 7.5 L 15.5 5 Z " /><path fill="rgb(133,143,208)" stroke="rgb(133,143,208)" stroke-width="1" opacity="1" d="M 8.5 8 L 12 8.5 L 8.5 9 L 8.5 8 Z " /><path fill="rgb(133,143,208)" stroke="rgb(133,143,208)" stroke-width="1" opacity="1" d="M 20.5 8 L 24 8.5 L 20.5 9 L 20.5 8 Z " /><path fill="rgb(133,143,208)" stroke="rgb(133,143,208)" stroke-width="1" opacity="1" d="M 21.5 10 L 22.5 12 L 21.5 10 Z " /><path fill="rgb(133,143,208)" stroke="rgb(133,143,208)" stroke-width="1" opacity="1" d="M 20.5 12 L 21.5 14 L 20.5 12 Z " /><path fill="rgb(133,143,208)" stroke="rgb(133,143,208)" stroke-width="1" opacity="1" d="M 7.5 13 L 8.5 15 L 7.5 13 Z " /><path fill="rgb(133,143,208)" stroke="rgb(133,143,208)" stroke-width="1" opacity="1" d="M 12.5 14 L 11.5 16 L 12.5 14 Z " /><path fill="rgb(133,143,208)" stroke="rgb(133,143,208)" stroke-width="1" opacity="1" d="M 6.5 18 L 7.5 20 L 6.5 18 Z " /><path fill="rgb(133,143,208)" stroke="rgb(133,143,208)" stroke-width="1" opacity="1" d="M 10.5 24 L 11.5 25 L 22 25.5 L 11.5 26 L 10.5 24 Z " /><path fill="rgb(65,79,195)" stroke="rgb(65,79,195)" stroke-width="1" opacity="1" d="M 17.5 11 L 18 21.5 L 19 22.5 L 17 23 L 17.5 11 Z " /><path fill="rgb(65,79,195)" stroke="rgb(65,79,195)" stroke-width="1" opacity="1" d="M 26.5 19 L 25.5 21 L 26.5 19 Z " /><path fill="rgb(65,79,195)" stroke="rgb(65,79,195)" stroke-width="1" opacity="1" d="M 21.5 20 L 22 21.5 L 20 22.5 L 21.5 20 Z " /><path fill="rgb(65,79,195)" stroke="rgb(65,79,195)" stroke-width="1" opacity="1" d="M 29.5 28 L 28.5 30 L 29.5 28 Z " /><path fill="rgb(56,72,185)" stroke="rgb(56,72,185)" stroke-width="1" opacity="1" d="M 26.5 18 L 25.5 20 L 26.5 18 Z " /><path fill="rgb(66,110,219)" stroke="rgb(66,110,219)" stroke-width="1" opacity="1" d="M 16 0 L 22.5 0 L 23 2 Q 20.3 0.9 21 3.5 L 17.5 6 L 15.5 5 L 14.5 8 L 11 6.5 L 12 4 L 14 4 L 16 0 Z " /><path fill="rgb(66,110,219)" stroke="rgb(66,110,219)" stroke-width="1" opacity="1" d="M 6.5 11 L 7.5 13 Q 5.3 12.3 6 14.5 L 6.5 16 Q 3.9 15.2 5 18.5 L 0 22 Q -1.5 13.9 4.5 12 L 6.5 11 Z " /><path fill="rgb(79,78,201)" stroke="rgb(79,78,201)" stroke-width="1" opacity="1" d="M 31.5 12 L 32 26.5 L 28 29.5 L 26.5 32 L 13 31.5 L 15 28 L 21.5 27 L 23 25.5 L 22 23.5 L 27 19.5 L 26 17.5 L 29 17 L 31.5 12 Z " /><path fill="rgb(0,0,0)" stroke="rgb(0,0,0)" stroke-width="1" opacity="0" d="M 0 0 L 7 0.5 Q 2.3 0.3 1 3.5 L 0.5 7 L 0 0 Z " /><path fill="rgb(0,0,0)" stroke="rgb(0,0,0)" stroke-width="1" opacity="0" d="M 27.5 0 Q 33.4 -2.1 32 2.5 L 29.5 1 Q 26.5 1.5 27.5 0 Z " /><path fill="rgb(0,0,0)" stroke="rgb(0,0,0)" stroke-width="1" opacity="0" d="M 0.5 26 Q 0.3 30.3 3 31.5 L 0 32 L 0.5 26 Z " /><path fill="rgb(0,0,0)" stroke="rgb(0,0,0)" stroke-width="1" opacity="0" d="M 31.5 30 L 32 32 L 30 31.5 L 31.5 30 Z " /><path fill="rgb(73,89,207)" stroke="rgb(73,89,207)" stroke-width="1" opacity="1" d="M 30.5 5 Q 33.3 6.3 32 11.5 L 29 17 L 27 17 Q 28.1 14.3 25.5 15 L 26 13.5 L 25 11.5 L 25.5 9 L 27 9.5 L 30.5 5 Z " /><path fill="rgb(73,89,207)" stroke="rgb(73,89,207)" stroke-width="1" opacity="1" d="M 10.5 20 L 14 22.5 L 11 23 L 10.5 20 Z " /><path fill="rgb(73,89,207)" stroke="rgb(73,89,207)" stroke-width="1" opacity="1" d="M 18.5 20 L 23 22.5 L 21.5 23 L 18 21.5 L 18.5 20 Z " /><path fill="rgb(73,89,207)" stroke="rgb(73,89,207)" stroke-width="1" opacity="1" d="M 9.5 25 L 10 27 L 17 27.5 L 15 28 L 12.5 32 Q 6.5 33.5 5 30.5 L 9.5 25 Z " /><path fill="rgb(43,61,182)" stroke="rgb(43,61,182)" stroke-width="1" opacity="1" d="M 11.5 26 L 21 26.5 L 11.5 27 L 11.5 26 Z " /></svg>